<?xml version="1.0" encoding="utf-8"?>
<!-- Generator: Adobe Illustrator 22.0.0, SVG Export Plug-In . SVG Version: 6.00 Build 0)  -->
<svg version="1.1" id="Layer_1" xmlns="http://www.w3.org/2000/svg" xmlns:xlink="http://www.w3.org/1999/xlink" x="0px" y="0px"
	 viewBox="0 0 872.3 868.2" style="enable-background:new 0 0 872.3 868.2;" xml:space="preserve">
<style type="text/css">
	.st0{fill:#161440;}
</style>
<g>
	<polygon class="st0" points="34.7,608 30.7,597.1 45.7,577.9 21.9,572.9 17.9,562 63.8,545.3 67.5,555.3 37.5,566.2 61.9,572 
		61.9,572.3 47.2,592.2 77,581.3 80.6,591.2 	"/>
	<polygon class="st0" points="7,513.8 5.2,503.2 53.3,495 55.1,505.6 	"/>
	<polygon class="st0" points="0.1,454.9 0,444.1 39.1,443.6 38.8,419.2 48.5,419.1 49,454.2 	"/>
	<polygon class="st0" points="3.9,373.9 5.8,363.3 44.3,370.2 48.6,346.2 58.2,347.9 52,382.5 	"/>
	<polygon class="st0" points="22.4,295.4 35.6,260.9 44.6,264.4 35.2,288.8 44.4,292.4 52.7,270.9 61.6,274.3 53.4,295.8 63,299.5 
		72.5,274.7 81.4,278.1 68.1,312.9 	"/>
	<polygon class="st0" points="57.3,217.8 62.7,209.4 100.4,206.5 75.1,190.2 80.8,181.3 121.9,207.7 116.9,215.4 78,218.5 
		104.1,235.3 98.4,244.2 	"/>
	<polygon class="st0" points="112.5,141.9 119.5,134.9 157,140 135.7,118.7 143.2,111.2 177.8,145.7 171.3,152.2 132.6,147 
		154.6,168.9 147.1,176.4 	"/>
	<polygon class="st0" points="181.8,80.8 190.6,74.6 218.7,114.5 209.9,120.7 	"/>
	<path class="st0" d="M243.8,74.4l-11.8-25.3l9.7-4.6l11.7,25c3.4,7.2,8.7,9.2,14.7,6.5c5.9-2.8,7.8-8.1,4.6-15.1l-11.8-25.3
		l9.7-4.6l11.7,25c6.3,13.4,1.8,23.5-10,29.1C260.2,90.6,249.9,87.4,243.8,74.4"/>
	<polygon class="st0" points="317.7,14.5 329.1,12 346.1,29.4 354.1,6.4 365.5,3.9 376,51.6 365.6,53.9 358.7,22.8 349.8,46.2 
		349.5,46.2 331.7,29 338.6,59.9 328.3,62.2 	"/>
	<polygon class="st0" points="471.7,0 508.6,4.4 507.5,14.1 481.2,11 480,21.3 503.1,24.1 501.9,33.8 478.8,31 476.5,49.8 
		465.8,48.6 	"/>
	<path class="st0" d="M577.3,21.5c-14.3-4.9-28.3,2.4-32.8,15.4v0.2c-4.5,13.1,2.1,27.2,16.4,32.1c14.3,4.8,28.3-2.4,32.8-15.6v-0.2
		C598.1,40.5,591.6,26.3,577.3,21.5 M583,50v0.2c-2.7,8-10.7,12.4-18.8,9.7c-8.3-2.9-11.8-11.3-9.1-19.3v-0.2
		c2.7-8,10.7-12.4,18.8-9.7C582.2,33.6,585.7,42.2,583,50z"/>
	<path class="st0" d="M630,75.1l14.5-23.8l9.2,5.6l-14.4,23.6c-4.1,6.8-2.9,12.4,2.7,15.8c5.6,3.4,11.1,2.1,15.1-4.5l14.6-23.9
		l9.2,5.6l-14.3,23.5c-7.7,12.6-18.6,14.5-29.8,7.7C625.6,97.8,622.5,87.4,630,75.1"/>
	<polygon class="st0" points="720.3,103.3 727.5,110.1 723.4,147.7 744.1,125.9 751.8,133.2 718.2,168.7 711.6,162.4 715.7,123.6 
		694.4,146.1 686.7,138.8 	"/>
	<path class="st0" d="M795.3,187.3l-10.8-15.6l-40.3,27.5l10.7,15.6c8.7,12.7,23.5,15.4,34.8,7.6h0.2
		C801.2,214.7,803.9,200.1,795.3,187.3 M783.4,213.3l-0.2,0.2c-7,4.8-15.3,3.3-20.2-4l-4.8-6.8l24.3-16.6l4.6,6.9
		C792.3,200.1,790.5,208.5,783.4,213.3z"/>
	<path class="st0" d="M837.6,263.1l-53.5-0.5l4.1,10.2l11.9-0.2l7.9,19.1l-8.4,8.3l4.3,10.5l37.4-38.3L837.6,263.1z M815.4,284.6
		l-4.9-11.9l17.2-0.2L815.4,284.6z"/>
	<polygon class="st0" points="852.5,342.4 849.5,327.9 859.2,325.9 867.4,365.5 857.7,367.5 854.7,353 816.5,360.9 814.4,350.4 	"/>
	
		<rect x="823.3" y="411.9" transform="matrix(0.9991 -4.240003e-02 4.240003e-02 0.9991 -16.9309 36.3164)" class="st0" width="48.8" height="10.7"/>
	<path class="st0" d="M847.8,465.6h-0.2c-13.7-1.9-26.4,7.3-28.3,22.3c-2.1,15,7.8,27.4,21.5,29.3h0.2c13.8,1.9,26.4-7.3,28.3-22.3
		C871.4,480,861.7,467.6,847.8,465.6 M842.4,506.1h-0.2c-8.3-1.1-14.3-8-13.2-16.6c1.1-7.8,7.6-12.9,15.1-12.9c0.8,0,1.4,0,2.2,0.2
		c8.4,1.1,14.3,8.1,13.2,16.7C858.5,502.1,850.7,507.2,842.4,506.1z"/>
	<polygon class="st0" points="852.7,567.4 849.2,576.7 813,587.6 841.2,598.1 837.5,608.1 791.8,591 795,582.4 832.3,571.1 
		803.2,560.2 806.9,550.3 	"/>
	<polygon class="st0" points="223.9,756.4 233.1,761.9 222.3,780.3 250.2,772 261.3,778.6 233.7,786.3 237.3,821.1 226.1,814.5 
		223.7,788.9 215.9,791 208.3,803.9 199,798.4 	"/>
	<path class="st0" d="M312,798.4c-14.3-4.9-28.3,2.2-32.8,15.4l-0.2,0.2c-4.5,13.1,2.2,27.2,16.4,32.1c14.3,4.8,28.3-2.4,32.8-15.4
		l0.2-0.2C332.9,817.3,326.2,803.2,312,798.4 M317.6,827v0.2c-2.7,7.8-10.5,12.4-18.8,9.5c-8.1-2.9-11.8-11.3-9.1-19.2l0.2-0.2
		c2.7-7.9,10.5-12.4,18.8-9.7C316.8,810.5,320.5,819.1,317.6,827z"/>
	<path class="st0" d="M363.4,855.7l7.2-6.8c3.9,4.2,8.2,7,13.7,7.7c4.4,0.6,7.2-0.8,7.6-3.7v-0.1c0.3-2.7-1.1-4.3-9-7.4
		c-9.4-3.7-15.4-7.2-14.2-16.8v-0.2c1.1-8.8,8.9-13.7,18.8-12.5c7.1,0.9,12.8,3.8,17.2,8.4l-6.5,7.3c-3.9-3.5-7.9-5.8-12-6.3
		c-4.1-0.5-6.4,1.1-6.8,3.5l0,0.1c-0.4,3.2,1.6,4.5,9.7,7.7c9.5,3.8,14.6,8,13.6,16.5l0,0.1c-1.2,9.6-9.2,14.1-19.7,12.8
		C375.7,865.1,368.6,861.6,363.4,855.7"/>
	<path class="st0" d="M466.9,817.7c-15,1.3-25,13.5-23.9,27.4c1.1,13.9,12.7,24.2,27.7,23.1c15.1-1.3,25.1-13.4,24-27.2v-0.2
		C493.6,826.9,481.8,816.5,466.9,817.7 M483.4,841.8c0.8,8.4-4.6,15.6-13.4,16.4c-8.6,0.6-15.3-5.9-15.9-14.2v-0.2
		c-0.6-8.3,4.8-15.6,13.4-16.2c8.6-0.8,15.3,5.7,15.9,14V841.8z"/>
	<polygon class="st0" points="521.5,811.1 532.9,807.7 554.9,837.1 557.4,800.5 568.6,797.2 563.5,850 554.4,852.7 	"/>
	<path class="st0" d="M652.9,783.1V783c-6.5-12.1-21.5-16.9-34.7-9.7c-13.2,7.2-17.5,22.3-11,34.5h0.1c6.5,12.3,21.3,17,34.7,9.9
		C655.3,810.5,659.6,795.4,652.9,783.1 M637.4,808.9c-7.6,4.1-16.4,0.8-20.2-6.5h-0.2c-4-7.5-1.9-16.2,5.7-20.4
		c7.7-4.1,16.2-1,20.2,6.5h0.1C647.1,796,645.1,804.7,637.4,808.9z"/>
	<polygon class="st0" points="759.5,689.8 763.8,703.1 777.7,703.1 766.5,711.2 770.7,724.4 759.5,716.2 748.3,724.4 752.6,711.2 
		741.3,703.1 755.2,703.1 	"/>
	<polygon class="st0" points="112.9,689.8 117.2,703.1 131.1,703.1 119.9,711.2 124.2,724.4 112.9,716.2 101.7,724.4 106,711.2 
		94.8,703.1 108.6,703.1 	"/>
	<path class="st0" d="M562.1,378.9c0.8-5.5,1.7-11.3,2.7-17.2c23.7-4.7,78.4,1,97.6,18c-1.2,4.9-0.2,11-1.3,16.1
		C634,378.7,592.1,374.4,562.1,378.9"/>
	<path class="st0" d="M557.4,411.2c0.6-5,1.3-10.6,2.2-16.6c33.1-3.1,69.5-2.6,100.2,15c-0.4,5.2-0.7,10.3-1,15.4
		C624.8,409.7,592.8,406.7,557.4,411.2"/>
	<path class="st0" d="M661.3,479.6c-33.1-9.3-75.5-13.1-115.8-8.4c-30.6,3.6-60.4,10.5-85.1,18.9c-0.7-5.2-1.3-10.3-1.9-15.2
		c26.9-8.4,57.4-15.6,88.3-19.1c38.6-4.5,78.6-1.1,112.6,9.3C659.9,469.9,660.6,474.7,661.3,479.6"/>
	<path class="st0" d="M665.2,512.7c-35.8-10.6-77.2-15.2-117.1-11.1c-28.6,3-56.8,9.4-83,18.1c-0.9-5.2-1.8-10.3-2.6-15.3
		c27.4-9.2,55.7-15.7,84.3-18.5c38.4-3.8,78.1,1,116,12.7C663.6,503.2,664.5,507.9,665.2,512.7"/>
	<path class="st0" d="M672.5,543.9c-15.9-21.6-153.4-19.4-225.8,13c0,0-0.1,0-0.2,0.1c-0.5,0.2-0.9,0.3-1.4,0.5
		c-0.9,0.3-1.7,0.6-2.5,0.9c-0.4,0.1-0.8,0.2-1.2,0.4c-38.2,12-49.3-21.9,7.3-14.4c11,1.5,20.8-1.5,18.7-13
		c23.6-8.6,49.8-14.2,75.2-16.3c42.8-5.1,87.2-2.6,123.8,9.6C668.1,528.7,674.6,540.1,672.5,543.9"/>
	<path class="st0" d="M531,351c0.6,1.6,1.1,3.1,1.7,4.7c1.8,0,3.7,0,5.5,0c-1.6,1.1-3.2,2.1-4.8,3.2c0.5,1.6,1.1,3.2,1.6,4.8
		c-1.4-0.9-2.9-1.8-4.3-2.6c-1.5,1.1-3,2.1-4.4,3.2c0.6-1.6,1.1-3.2,1.7-4.9c-1.2-1-2.5-2-3.8-2.9c1.7-0.2,3.4-0.3,5.1-0.5
		C529.8,354.3,530.4,352.7,531,351"/>
	<path class="st0" d="M531,406.5c-1.3-0.9-2.6-1.8-3.9-2.7c-1.5,1.1-3,2.2-4.5,3.3c0.7-1.7,1.4-3.3,2-4.9c-1.1-1-2.2-2-3.3-3
		c1.6-0.2,3.2-0.3,4.9-0.5c0.7-1.7,1.4-3.3,2.2-5c0.4,1.6,0.7,3.2,1.1,4.8c1.7,0,3.4,0.1,5.2,0.1c-1.6,1-3.2,2.1-4.9,3.1
		C530.2,403.3,530.6,404.9,531,406.5"/>
	<path class="st0" d="M517.6,419.8c-1.3-0.8-2.6-1.7-3.8-2.6c-1.5,1.1-3,2.2-4.5,3.3c0.7-1.7,1.3-3.3,1.9-5
		c-1.3-0.8-2.5-1.7-3.8-2.5c1.7-0.3,3.4-0.5,5.1-0.8c0.6-1.6,1.2-3.3,1.9-4.9c0.4,1.5,0.9,3,1.3,4.6c1.6-0.2,3.3-0.3,5-0.4
		c-1.5,1.2-2.9,2.4-4.3,3.6C516.9,416.6,517.2,418.2,517.6,419.8"/>
	<path class="st0" d="M506.3,411c-1.4-0.8-2.8-1.5-4.3-2.2c-1.4,1.2-2.8,2.5-4.2,3.7c0.5-1.6,1-3.3,1.4-5c-1.4-0.7-2.8-1.4-4.2-2.1
		c1.7-0.4,3.4-0.8,5.2-1.3c0.4-1.7,0.9-3.3,1.3-5c0.6,1.4,1.2,2.9,1.9,4.3c1.7-0.3,3.4-0.6,5.1-0.9c-1.4,1.3-2.7,2.6-4,3.9
		C505.1,408,505.7,409.5,506.3,411"/>
	<path class="st0" d="M506.4,390.1c-1.5-0.7-3-1.5-4.5-2.2c-1.4,1.2-2.7,2.5-4.1,3.7c0.4-1.7,0.8-3.3,1.2-5
		c-1.5-0.7-2.9-1.4-4.4-2.1c1.7-0.4,3.5-0.9,5.2-1.3c0.4-1.7,0.7-3.3,1.1-5c0.7,1.4,1.4,2.9,2.1,4.3c1.7-0.3,3.4-0.6,5.2-0.8
		c-1.3,1.3-2.6,2.6-4,3.9C505,387.1,505.7,388.6,506.4,390.1"/>
	<path class="st0" d="M519.3,397.8c-1.4-0.8-2.7-1.7-4.1-2.5c-1.5,1.1-2.9,2.2-4.4,3.3c0.6-1.6,1.2-3.3,1.8-4.9
		c-1.4-0.8-2.6-1.7-3.9-2.5c1.7-0.3,3.5-0.5,5.2-0.8c0.6-1.6,1.1-3.2,1.7-5c0.6,1.5,1.1,3.1,1.6,4.6c1.7-0.2,3.4-0.3,5.1-0.4
		c-1.4,1.2-2.8,2.4-4.3,3.6C518.3,394.6,518.8,396.2,519.3,397.8"/>
	<path class="st0" d="M520,376.7c-1.4-0.8-2.9-1.7-4.3-2.6c-1.4,1.1-2.9,2.2-4.3,3.3c0.5-1.6,1-3.2,1.5-4.9
		c-1.4-0.9-2.8-1.7-4.3-2.5c1.8-0.3,3.6-0.6,5.3-0.9c0.5-1.6,1-3.2,1.5-4.9c0.6,1.5,1.3,3,1.9,4.5c1.7-0.2,3.5-0.3,5.2-0.4
		c-1.4,1.2-2.8,2.4-4.2,3.5C518.9,373.5,519.4,375.1,520,376.7"/>
	<path class="st0" d="M532.8,383.8c-1.4-0.9-2.7-1.8-4.2-2.7c-1.4,1.1-2.9,2.2-4.4,3.2c0.6-1.6,1.2-3.3,1.8-4.9
		c-1.2-1-2.3-2-3.5-2.9c1.7-0.2,3.3-0.4,5-0.5c0.7-1.6,1.4-3.3,2-4.9c0.5,1.6,0.9,3.2,1.3,4.7c1.8,0.1,3.5,0.1,5.3,0.2
		c-1.6,1-3.2,2-4.8,3.1C531.8,380.6,532.3,382.2,532.8,383.8"/>
	<path class="st0" d="M513.6,347.3c0.3-1.6,0.8-3.2,1.1-4.9c0.8,1.5,1.5,3,2.3,4.5c1.8-0.2,3.6-0.3,5.4-0.4
		c-1.4,1.2-2.8,2.4-4.2,3.6c0.7,1.6,1.3,3.2,2,4.7c-1.6-0.8-3.1-1.7-4.7-2.6c-1.5,1.1-2.9,2.2-4.3,3.3c0.4-1.6,0.9-3.2,1.4-4.9
		c-1.5-0.8-3-1.6-4.6-2.5C509.9,347.9,511.7,347.6,513.6,347.3"/>
	<path class="st0" d="M499.7,361.6c0.2-1.7,0.5-3.3,0.7-5c0.9,1.4,1.7,2.8,2.6,4.2c1.7-0.3,3.5-0.5,5.3-0.9
		c-1.3,1.3-2.5,2.6-3.8,3.9c0.7,1.6,1.5,3.1,2.2,4.6c-1.5-0.7-3.2-1.5-4.7-2.2c-1.4,1.2-2.7,2.4-4,3.6c0.3-1.6,0.7-3.3,1-5
		c-1.6-0.6-3.1-1.4-4.7-2.1C496.1,362.4,497.9,362,499.7,361.6"/>
	<path class="st0" d="M482.4,353.6c0.1-1.6,0.3-3.3,0.4-5c1,1.5,2,2.9,3,4.3c1.8-0.3,3.6-0.5,5.4-0.8c-1.2,1.3-2.5,2.6-3.7,3.8
		c0.9,1.5,1.8,3,2.7,4.5c-1.7-0.7-3.4-1.4-5-2.2c-1.3,1.2-2.6,2.4-3.9,3.6c0.2-1.7,0.4-3.3,0.7-4.9c-1.6-0.7-3.3-1.4-4.9-2.1
		C478.8,354.4,480.6,354,482.4,353.6"/>
	<path class="st0" d="M486.7,374.9c0.3-1.6,0.6-3.3,0.9-5c0.8,1.4,1.6,2.9,2.4,4.3c1.7-0.3,3.5-0.6,5.2-0.8
		c-1.3,1.3-2.6,2.6-3.8,3.9c0.8,1.5,1.5,3.1,2.3,4.6c-1.6-0.8-3.1-1.5-4.6-2.3c-1.3,1.2-2.7,2.4-4,3.6c0.3-1.6,0.7-3.3,1-5
		c-1.5-0.7-3.1-1.4-4.6-2.1C483.2,375.7,485,375.3,486.7,374.9"/>
	<path class="st0" d="M486.2,395.8c0.4-1.6,0.7-3.3,1.1-5c0.7,1.4,1.4,2.9,2.2,4.3c1.7-0.2,3.4-0.5,5.1-0.8c-1.3,1.3-2.6,2.6-4,3.9
		c0.6,1.5,1.3,3,1.9,4.6c-1.5-0.7-3-1.5-4.4-2.2c-1.3,1.2-2.7,2.5-4,3.7c0.4-1.7,0.8-3.3,1.2-5c-1.4-0.7-2.8-1.4-4.2-2.1
		C482.7,396.6,484.5,396.2,486.2,395.8"/>
	<path class="st0" d="M479.5,419c-1.4-0.8-2.9-1.5-4.3-2.3c-1.4,1.2-2.8,2.4-4.1,3.6c0.4-1.7,0.9-3.4,1.4-5
		c-1.4-0.8-2.7-1.5-4.1-2.2c1.7-0.4,3.4-0.8,5.1-1.2c0.4-1.7,0.8-3.4,1.2-5c0.7,1.4,1.3,2.9,2,4.4c1.7-0.2,3.4-0.5,5.1-0.8
		c-1.3,1.3-2.7,2.6-4,3.9C478.4,415.9,478.9,417.4,479.5,419"/>
	<path class="st0" d="M467,432.7c-1.4-0.8-2.8-1.6-4.2-2.4c-1.4,1.2-2.8,2.4-4.2,3.6c0.5-1.7,1-3.4,1.5-5.1
		c-1.4-0.8-2.7-1.5-4.1-2.3c1.7-0.4,3.4-0.7,5.1-1.1c0.4-1.7,0.9-3.3,1.3-5c0.6,1.5,1.2,2.9,1.9,4.4c1.6-0.2,3.3-0.5,5-0.8
		c-1.3,1.3-2.6,2.6-4,3.9C465.9,429.5,466.5,431.1,467,432.7"/>
	<path class="st0" d="M462.5,382.8c0.8,1.5,1.7,3,2.4,4.5c-1.5-0.7-3.2-1.6-4.7-2.3c-1.3,1.1-2.6,2.3-3.9,3.5
		c0.3-1.6,0.6-3.3,0.8-4.9c-0.3-0.1-0.5-0.3-0.8-0.4c0-0.9,0.1-1.8,0.2-2.6c0.4-0.1,0.8-0.2,1.2-0.2c0.3-1.7,0.5-3.3,0.7-5
		c0.9,1.6,1.7,2.9,2.6,4.4c1.7-0.2,3.4-0.5,5.2-0.7C464.9,380.1,463.7,381.5,462.5,382.8"/>
	<path class="st0" d="M464.4,404.6c0.7,1.5,1.4,3.1,2,4.7c-1.5-0.8-2.9-1.6-4.5-2.4c-1.3,1.2-2.7,2.5-4,3.6c0.4-1.7,0.8-3.3,1.1-5
		c-1.3-0.7-2.7-1.4-4-2.1c-0.1-0.1-0.2-0.1-0.3-0.2c0.1,0,0.2,0,0.3,0c1.6-0.4,3.3-0.7,4.9-1c0.4-1.7,0.7-3.3,1-5
		c0.8,1.4,1.5,3,2.3,4.4c1.7-0.2,3.4-0.5,5.1-0.8C467,402,465.7,403.3,464.4,404.6"/>
	<path class="st0" d="M479.8,395.2c-1.6-0.7-3.1-1.5-4.6-2.3c-1.3,1.2-2.7,2.4-4,3.6c0.4-1.6,0.7-3.3,1.1-5
		c-1.5-0.8-2.9-1.4-4.4-2.2c1.7-0.4,3.5-0.8,5.2-1.2c0.3-1.7,0.7-3.3,1-4.9c0.8,1.4,1.5,2.9,2.3,4.3c1.7-0.2,3.4-0.5,5.1-0.8
		c-1.3,1.3-2.6,2.6-3.9,3.9C478.4,392.1,479.1,393.7,479.8,395.2"/>
	<path class="st0" d="M470.1,362.2c0.9,1.5,1.8,2.9,2.8,4.3c1.8-0.2,3.5-0.5,5.3-0.8c-1.2,1.3-2.4,2.6-3.7,3.8
		c0.9,1.5,1.7,3,2.5,4.6c-1.6-0.8-3.2-1.5-4.9-2.3c-1.3,1.2-2.6,2.4-3.9,3.6c0.3-1.6,0.5-3.3,0.8-5c-1.6-0.7-3.2-1.5-4.8-2.2
		c1.8-0.3,3.6-0.7,5.3-1.1C469.7,365.5,469.9,363.9,470.1,362.2"/>
	<path class="st0" d="M463.5,449.8c0.5,1.5,1.1,3.1,1.6,4.6c-1.5-0.7-2.8-1.5-4.2-2.3c-1.4,1.3-2.8,2.6-4.2,3.8
		c0.6-1.7,1.1-3.4,1.6-5.1c-0.7-0.4-1.4-0.8-2.1-1.1c-0.1-0.5-0.1-1-0.1-1.5c1.1-0.2,2.3-0.5,3.4-0.8c0.5-1.7,1.1-3.4,1.6-5.1
		c0.5,1.5,1.1,3,1.6,4.4c1.6-0.2,3.3-0.5,4.9-0.8C466.3,447.1,464.9,448.4,463.5,449.8"/>
	<path class="st0" d="M479.1,441.5c-1.4-0.7-2.7-1.5-4.1-2.3c-1.4,1.2-2.9,2.5-4.3,3.7c0.5-1.7,1.1-3.4,1.6-5.1
		c-1.4-0.7-2.7-1.4-4.1-2.1c1.7-0.4,3.4-0.9,5.1-1.3c0.5-1.7,1-3.4,1.5-5.1c0.5,1.5,1.1,2.9,1.6,4.4c1.7-0.3,3.3-0.6,5-0.8
		c-1.4,1.3-2.7,2.6-4.1,4C478.2,438.4,478.7,439.9,479.1,441.5"/>
	<path class="st0" d="M487,419.6c0.5-1.7,0.9-3.4,1.4-5.1c0.6,1.5,1.2,2.9,1.8,4.4c1.7-0.3,3.3-0.6,5-0.8c-1.3,1.3-2.7,2.6-4,3.9
		c0.5,1.5,1,3.1,1.6,4.6c-1.4-0.7-2.8-1.5-4.2-2.2c-1.4,1.2-2.8,2.5-4.2,3.7c0.5-1.7,1.1-3.4,1.5-5.1c-1.4-0.7-2.7-1.4-4.1-2.1
		C483.5,420.5,485.2,420.1,487,419.6"/>
	<path class="st0" d="M494,448c-1.4-0.7-2.8-1.4-4.2-2.2c-1.4,1.3-2.8,2.5-4.2,3.7c0.5-1.7,1-3.4,1.6-5.1c-1.3-0.7-2.7-1.4-4-2
		c1.7-0.5,3.4-0.9,5.1-1.4c0.5-1.7,1-3.4,1.5-5.1c0.5,1.5,1.1,2.9,1.6,4.3c1.7-0.3,3.3-0.6,5-0.9c-1.4,1.3-2.7,2.7-4.1,4
		C492.9,445,493.4,446.5,494,448"/>
	<path class="st0" d="M501.2,431.8c-1.4,1.2-2.8,2.5-4.2,3.7c0.5-1.7,1-3.4,1.6-5.1c-1.3-0.7-2.7-1.4-4-2.1c1.7-0.4,3.4-0.8,5.1-1.3
		c0.5-1.7,1-3.3,1.5-5c0.5,1.4,1.1,2.9,1.6,4.4c1.6-0.3,3.3-0.6,5-0.9c-1.4,1.3-2.7,2.7-4.1,4c0.5,1.5,1.1,3,1.6,4.6
		C504,433.3,502.6,432.5,501.2,431.8"/>
	<path class="st0" d="M514.5,439.1c0.4,1.6,0.8,3.2,1.3,4.7c-1.3-0.8-2.7-1.6-4-2.5c-1.4,1.2-2.9,2.4-4.4,3.5c0.6-1.7,1.2-3.3,1.9-5
		c-1.3-0.9-2.5-1.8-3.7-2.7c1.7-0.2,3.4-0.4,5-0.7c0.7-1.7,1.5-3.3,2.3-5c0.3,1.5,0.6,3,0.9,4.5c1.7-0.1,3.5-0.2,5.2-0.2
		C517.5,436.8,516,438,514.5,439.1"/>
	<path class="st0" d="M525.2,426.9c-1.5,1.1-3,2.1-4.5,3.3c0.7-1.6,1.4-3.3,2.1-4.9c-1-1-2.1-2-3.1-3c1.6-0.2,3.2-0.3,4.8-0.4
		c0.7-1.7,1.5-3.3,2.3-5c0.3,1.6,0.6,3.2,0.9,4.8c1.7,0.1,3.4,0.2,5.1,0.2c-1.6,1-3.2,2.1-4.8,3.1c0.3,1.6,0.7,3.2,1,4.8
		C527.7,428.8,526.4,427.9,525.2,426.9"/>
	<path class="st0" d="M538,439.9c-1.2-1-2.4-2.1-3.5-3.1c-1.4,1-2.9,2-4.3,2.9c0.7-1.6,1.4-3.2,2.1-4.8c-1.2-0.9-2.3-1.9-3.3-2.9
		c1.7-0.1,3.4-0.2,5.1-0.3c0.8-1.6,1.6-3.2,2.4-4.8c0.2,1.6,0.4,3.2,0.7,4.8c1.7,0.2,3.3,0.3,5.1,0.5c-1.6,0.9-3.2,1.9-4.8,2.8
		C537.6,436.5,537.8,438.2,538,439.9"/>
	<path class="st0" d="M540.4,412.5c0.2,1.7,0.4,3.3,0.6,5c-1.2-1.1-2.3-2-3.5-3c-1.5,1-2.9,2-4.3,3c0.7-1.6,1.3-3.2,2-4.8
		c-1.2-1-2.3-1.9-3.4-2.9c1.7-0.1,3.4-0.2,5.1-0.3c0.8-1.6,1.5-3.2,2.3-4.9c0.2,1.6,0.5,3.2,0.8,4.8c1.7,0.2,3.4,0.3,5.1,0.5
		C543.6,410.6,542,411.5,540.4,412.5"/>
	<path class="st0" d="M543.4,389.4c0.3,1.7,0.6,3.3,0.8,5c-1.2-1-2.5-2.1-3.7-3.1c-1.4,1-2.8,2-4.2,2.9c0.6-1.6,1.2-3.2,1.8-4.8
		c-1.2-0.9-2.4-1.9-3.6-2.9c1.7-0.1,3.5-0.3,5.2-0.4c0.7-1.6,1.4-3.2,2.2-4.8c0.3,1.6,0.6,3.2,1,4.7c1.8,0.1,3.5,0.3,5.3,0.4
		C546.7,387.5,545.1,388.5,543.4,389.4"/>
	<path class="st0" d="M546.5,369.5c0.3,1.6,0.6,3.2,1,4.9c-1.3-1-2.6-2-3.8-3c-1.4,1-2.8,2-4.2,2.9c0.6-1.6,1.1-3.2,1.7-4.8
		c-1.3-0.9-2.5-1.9-3.8-2.9c1.8-0.1,3.5-0.3,5.3-0.4c0.7-1.6,1.4-3.2,2.1-4.8c0.4,1.6,0.8,3.1,1.2,4.7c1.8,0.2,3.6,0.3,5.4,0.4
		C549.7,367.6,548.1,368.5,546.5,369.5"/>
	<path class="st0" d="M549.4,348.2c0.4,1.7,0.9,3.3,1.3,5c-1.4-1-2.8-2-4.2-3c-1.4,1-2.8,2-4.1,3c0.5-1.6,0.9-3.2,1.5-4.8
		c-1.4-1-2.7-1.9-4.1-2.9c1.8-0.1,3.7-0.3,5.5-0.4c0.7-1.6,1.3-3.2,1.9-4.8c0.5,1.6,1,3.1,1.5,4.7c1.9,0.1,3.7,0.3,5.6,0.4
		C552.7,346.4,551,347.3,549.4,348.2"/>
	<path class="st0" d="M665.4,364.3c-0.7,2-0.7,2.2-1.1,3.9c-21.7-15.1-71.8-26.5-96.5-18.9c0.8-5,1.6-12.1,2.5-17.2
		c13.4-2.1,37.9-1.4,59.8,4c10.3,2.6,20.9,7.9,27.6,11.8C665.1,352.1,669,354.7,665.4,364.3"/>
	<path class="st0" d="M659.9,439.8c0.2,4.8,0.5,9.6,0.9,14.3c-32.1-14.4-72.9-19.8-105.9-12.8c0-0.4,0.2-5.6,1-14.5
		C586.1,419.1,630.8,425.1,659.9,439.8"/>
	<path class="st0" d="M459,339.9c-53.3-54.1-240.3-3.3-240.3-3.3s6.7,13.8,8.9,72.1c0.9,28.6,4,54.6,2.5,77.5
		c-1.6,32.8-7.9,57.8-8.4,60.1c4.5-1.9,82-34.9,188.4-29.3c12.4,0.5,41.7,4.1,52.7,10.5C438.7,402.9,459,339.9,459,339.9
		 M377.4,364.6l2.2-7.5l2.9,7.3l7.8-0.5l-5.9,4.9l2.9,7.2l-6.7-4.3l-6.5,5.1l2.2-7.6l-6.7-4.1L377.4,364.6z M353.7,361.1l1.9-7.5
		l2.9,7.2l8-0.5l-6.1,5.1l2.9,7.2l-6.7-4.3l-6.2,4.9l1.9-7.3l-6.7-4.3L353.7,361.1z M328.1,362.5l1.9-7.8l2.9,7.5l8.3-0.5l-6.4,5.1
		l2.9,7.2l-6.7-4.3l-6.4,4.8l2.1-7.5l-6.7-4.3L328.1,362.5z M292.9,388.3l-6.7-4.1l-6.5,4.9l2.4-7.8l-6.7-4l8-0.5l2.2-7.6l2.9,7.3
		l7.8-0.5l-6.2,4.8L292.9,388.3z M305.2,368.4l1.9-7.3l2.9,7.2l8.1-0.3l-6.5,4.8l3,7.5l-6.8-4.3l-6.2,4.8l2.2-7.5l-6.7-4.3
		L305.2,368.4z M398.1,424.4c-0.5,0-0.5,0.3-0.5,0.3c0,0.2-0.5,0.5-0.5,0.5l-0.5-0.3c0,0-0.3,0-0.3,0.3c-0.3,0.2-0.5,0.5-0.3,1
		c0.3,0.2,0.3,0.2,0,0.5c-0.2,0.2-0.2,0.6-0.2,0.6c-0.3-0.2-0.8,0-0.8,0c-0.2,0,0,0.8,0.3,1c0.5,0.3,0.5,0.5,0.5,0.5l0.5,0.5
		c0,0,0,0.3-0.3,0.5c0,0.3-0.2,0.5,0,0.8c0.3,0,0.3,0.5,0,0.5c-0.5,0-0.6,0-0.6,0.2c0,0.3,0,0.3-0.3,0.3c-0.5,0-1.1-0.3-1.4,0.2
		c-0.1,0.3,0,0.5-0.5,0.5c-0.2,0,0,0.5,0,0.8c0.3,0,0.5,0.2,0.5,0.2s0.3,0.3,0.3,0.8c0,0.5,0,0.5-0.3,0.2c-0.1-0.5-0.6-0.2-0.6,0
		c0,0.5,0,1-0.3,1c-0.5,0-0.5,0-0.5,0.3c-0.2,0-0.5,0.5-0.5,0.6c0,0,0,0.3-0.2,0.3c-0.3,0-0.3,0.5-0.3,0.5s-0.5,0.2-0.5,0.5
		c0,0,0,0.5-0.5,0.5c-0.5,0-0.6,0.5-1,0.6v0.5c0.5,0.3,0.5,1,0.8,1c0.1,0,0.5,0,0.5,0.5v0.5c0.5,0,0.6,0,0.5,0.5
		c0,0.3,0,0.3-0.3,0.5c-0.2,0-0.5,0-0.5,0.5c0,0.3,0.3,0.3,0,0.5c-0.1,0-0.1,0.3-0.1,0.5c0,0.3-0.3,0.3-0.5,0.5
		c-0.3,0.3-0.5,0.3-0.8,0.3c-0.1,0-0.1,0-0.1-0.3c-0.3-0.2-0.5-0.2-1-0.2l-0.8,0.8c0.3,0.2,0.3,0.6,0,0.6c-0.5-0.1-1.1,0.3-1.4,0
		c-0.2-0.5-0.6-0.5-1,0c0,0.5,0.5,0.5,0.5,0.8c-0.2,0.6-0.2,0.6-0.5,1v0.2c-0.2,0.3-0.2,0.8,0.3,1c0.2,0,0.5,0.5,0.5,0.8
		c0,0.2,0,0.5,0.2,0.5c0.5,0,0.8,0,0.8-0.3c0-0.2,0.6-0.6,0.6,0c0,0.5,0,1,0.3,1c0.1,0.5,0.5,0.8,0.6,1c0.3,0,0.8,1,0.8,1
		c-0.8,0.3-0.8,0.8-1,0.8c0,0.2-0.3,0-0.5,0.2c0,0.3,0,0.3-0.3,0.5c-0.2,0-0.2-0.5-0.6-0.2c-0.3,0.2-0.3,0.5-1,0.5
		c-0.3-0.3-0.5-1.3-0.5-1.4c0,0-0.5-0.5-0.5-0.8c-0.3-0.2-1,0-1.3,0c-0.2-0.2-0.2-0.5-0.6-0.5c-0.9,0-0.3,0.5-0.5,0.8
		c-1,0.2-1-0.8-1.4-0.3c-0.3,0.3,0.5,0.3,0.1,0.8c-0.1,0.2-0.5,0.5-0.5,0.6c0,0.5,0.5,0.5,0.5,1c0.5,0.8,0,1.4-0.9,0.8
		c-0.5-0.3-0.6-1-1.4-1c-0.2,0-0.2,0.2-0.5,0.2h-0.2c-0.3,0-0.3,0.3-0.3,0.5c0,0-0.1,0.3-0.5,0.3c0,0.5,0,0.6-0.2,1
		c-0.3,0-0.5,0-0.8,0.2c-0.2,0.5-0.2,0.9-0.5,1.3c-0.2,0.2-0.5-0.5-0.6,0v0.5c0.5,0.6-0.5,1.1-0.8,1.9c-0.2,0.2,0.3,0.5,0,0.6
		c0,0.3-0.5,0.5-0.5,0.8c0,0,0,0.2-0.2,0.2c0,0.3-0.3,0.3-0.3,0.3c0,0.2,0.3,0.2,0.3,0.5c0.2,0,0.2,0.2,0.2,0.2
		c0.5,0.5,0.3,0.3,0.5,0.8c0,0,0.3,0,0.3,0.2v0.3l0.1,0.5c0,0-0.5,0.5-0.6,0.5c-0.5,0.2,0.2-1-0.5-0.8c-0.3,0-0.3,0.5-0.3,0.8h-0.5
		c-0.5,0-0.6,0.6-0.6,0.6h-0.8c-0.2,0-0.5,0.3-0.5,0.3c-0.1,0-0.1-0.3-0.1-0.3h-1h-0.5c0-0.2,0-0.3-0.3-0.5c0,0-0.2-0.5-0.2-0.6
		c0-0.3,0.2-0.8,0-1.3c0-0.5-0.8-0.6-1.1-1c-0.2-0.2-0.2-1-0.5-1.1c-0.5-0.3-0.6-0.5-0.9-0.8c0,0,0.3-0.2,0-0.5c0,0-0.2-0.2-0.5-0.2
		v-1h-2.1c0,0-0.3,0-0.5-0.3v-0.2c-0.3,0-0.5,0-0.5,0.2h-0.5c-0.5,0.3-0.5,0.5-1,1c-0.3,0.3-0.8,0.3-1.3,0.8c-0.2,0.2-0.5,1-0.6,1.1
		h-0.5c0,0.3-0.3,0.5-0.8,0.8v0.2l-0.5,0.3h-0.5c-0.2,0-0.2,0.2-1,0.6h-0.2l-0.3,0.3h-0.1c-0.3,0-0.5,0-0.5,0.2
		c-0.5,0-1.3-0.2-1.4,0c-0.3,0-0.8,0.8-1,0.8h-0.3c0,0-0.2,0.6-0.2,1l-0.9,0.6c0,0.3-0.3,0.5-0.3,0.5c-0.2,0.3-0.2,0.3-0.5,0.3
		l-0.5-0.3c-0.5,0-1.4,0-1.6,0.3c-0.3,0-0.3,1-1,1c-0.5,0.2-0.8,0.2-1.4,0.5c0,0-0.3-0.3-0.5-0.3c-0.3,0-0.5,0.5-0.5,0.5v0.3
		c0,0,0.2,0,0.2,0.2c-0.2,0-0.6,0.5-0.6,0.8c0,0-0.3,0-0.3,0.2l-0.5,0.3c-0.2,0.5,0.3,0.6,0.3,0.6c0,0.5-0.5,1-0.8,1.3
		c-0.2,0.2,0.3,0.6,0,0.9c0.3,0.5,0,1.3,0,1.8l0.3,0.5l0.2,0.2c0,0,0.8,1.3,0.8,1.4c0.2,0.8-1.3,0.5-0.3,1.3c0,0.2,0.3,0.5,0.3,0.5
		c0.2,0.2,1.1,0.6,1.1,0.9c0,0-0.6,0.2-0.9,0.2c-0.2,0.5-0.5,1.3-1,1.8c0,0-0.5,0-0.5,0.5c-0.2,0.2,0,0.6-0.2,0.6
		c-0.3,0.3-0.3,0-0.5,0c0,0.3,0,0.5-0.3,0.5c-0.2,0.3-1.6,1.3-2.1,1.3c0,0-0.3-0.3-0.3-0.5c0,0,0-0.3-0.3-0.5
		c-0.5-0.3-1.1-0.3-1.6,0.2c0,0.3,0,0.3-0.3,0.5c-0.2,0.3-0.5,0.5-0.6,0.8l-0.3,0.2c-0.2,0-0.6-0.5-0.6-0.6c-0.3-0.3-0.9-0.8-0.9-1
		c0-1-0.8-1.9-1.3-2.9h0.5c0.5-0.5,0.3-1.3,1.3-1c0.2,0,0-0.3,0.2-0.5h0.3c0.5-0.5,0.6-2.4,0.2-2.9c-0.2-0.3-0.5-0.3-0.6-1v-0.8
		c-0.3,0-0.5-1-0.8-1.3c0,0,0-0.2-0.2-0.2v-1.3c-0.3-0.6-1.4-1.1-1.4-1.4c-0.3,0-0.3-0.1-0.5-0.5c-0.3-0.2-0.3-0.5-0.3-0.6
		c0-0.3-0.2-0.3-0.2-0.3c0-0.2,0.5-0.6,0.5-1.1c0,0-0.3-0.3-0.3-0.5c0-0.5,0.3-1,0.3-1.3c0-0.2-0.8-1-0.8-1.1c0-0.3,0.3-0.3,0.3-0.5
		c0,0-0.8-0.8-1-0.9V462c-0.3-0.2,0-0.2-0.3-0.5c0-0.2-0.2-0.2-0.2-0.5c-0.3-0.2-0.8-2.1-0.8-2.1c-0.1-0.3-0.1-0.3-0.5-0.5
		c0-0.3,0-0.5-0.2-0.5c0,0-0.5-0.3-0.8-0.3c0-0.1,0-0.6-0.1-1c-0.3,0-0.3,0-0.3-0.2c-0.2,0-0.2,0-0.2-0.3c-0.3-0.1-0.5,0.3-1-0.6
		c-0.3-0.3-0.5-0.5-1-0.8v-0.2h-1c0,0-0.8,0-0.8-0.3v-0.2h-1.1c-0.3-0.3-0.5-1-0.8-1c0-0.3-0.2-0.3-0.2-0.3
		c-0.3-0.2-1.3-0.2-1.4-0.2c-0.3-0.3-0.5,0-0.5-0.3V452c-0.3-0.2-0.3-0.5-0.5-0.5c-0.3,0-0.3,0-0.5-0.2c-0.5,0-0.5,0-0.9,0.5
		c0,0-0.3,0-0.3,0.2c-0.2,0-0.2,0.3-0.5,0.3c-0.2,0-0.2-0.3-0.5-0.3c0,0-0.1,0-0.1-0.2c-0.5-0.3-1.8,0.6-2.2,0.2
		c-0.2-0.2-0.2,0-0.5-0.2c0,0,0.3-1-0.6-1.4c0.2-0.3,0.5-0.5,0.6-0.5v-0.5c-0.1-0.3,0-0.5-0.1-0.8v-0.2c-0.3,0,0-0.3-0.3-0.5h-0.2
		c-0.3-0.5-0.5-0.5-0.8-0.8c0,0,0-0.2-0.2-0.2c0,0-0.3,0-0.5-0.5v-0.5c0.2-0.3,1-0.3,0.6-1c0-0.3-0.2-0.5-0.2-0.8
		c-0.3,0-0.3-0.2-0.3-0.2c-0.8,0-0.5-0.8-0.8-0.8c-0.6-0.5-1.1-0.3-0.5-1c0-0.3-0.6-0.8-0.6-1c-0.3,0-0.3-0.5-0.3-0.9
		c0,0-0.5-0.3-0.6-0.3v-0.5c0-0.2-0.3-0.2-0.3-0.5H309c-0.8-0.5-1.3-0.6-1.9-1c-0.3,0-0.3-0.2-0.5-0.2c0,0-1-0.5-1.3-0.5
		c0,0,0-0.3-0.1-0.5c0-0.3-0.3-0.5-0.3-0.5c0-0.3-0.2-0.3-0.6-0.5v-0.3c0,0,0.2-0.6,0.2-1c0,0,0.3-0.2,0.3-0.5
		c-0.3-0.2,0-0.5-0.3-0.6c-0.2-1-0.6-0.8-0.5-1.9c0-0.3-0.2-0.3,0-0.5l0.5-0.5c0.3-0.3,0.3-0.8,0.5-1c0.3-0.3,0.8-0.5,0.8-0.5V429
		h-0.5l-0.3-0.3c-0.2,0-0.2,0-0.2-0.2h-0.8c-0.2-0.3-0.5-0.3-0.6-0.3c-0.3-0.2-0.8-0.6-0.9-1c-0.5,0-1,0.3-1.4,0.3
		c-0.3,0-0.3-0.3-0.5-0.3c-0.3,0,0,0.3-0.8,0v-0.5h-0.5c-0.5,0-0.2-0.5-0.5-1h-0.5v-0.1l-0.2-0.5c0,0,0.6-0.3,1-0.3
		c0-0.2-0.3-0.2-0.3-0.2c0-0.3,0.3-0.5,0.3-0.8c-0.3-0.2-0.5-0.5-0.5-0.5v-0.2c0.5-1.3,1-0.3,1.4-1.3c0,0,0.2-0.2,0.2-0.5h0.3
		c0.2,0,0.2-0.2,0.5-0.2h0.2c0.8-0.3,0.5-0.5,1-1h0.8c0.2,0,0.5,0.2,0.9,0.2c0.2,0.3,1.1,0.3,1.1,0.3c0.3,0.2,0.3,0.5,0.5,0.5
		c0.5,0.5,0.3-0.3,0.8,0c0.5,0,1,0.5,1.4,0.6c0-0.2,0.2-0.2,0.2-0.2c0.3,0,1-0.3,1.3-0.3c0,0,0,0.3,0.2,0.3l0.3-0.3
		c0.5,0,0.5,0.3,1,0c0,0,0-1.1,0.2-1.1c0.3,0,0.5,0.2,0.8,0.2v-0.2c-0.3-0.3-0.5-1-0.5-1h0.2c0.5-0.3,0.8-0.3,1.1-0.5l0.2-0.5
		c0.3-0.3,0-0.5,0-0.5c0-0.3,0.3-0.3,0.5-0.3c0-0.2,0-0.5,0.3-0.5c0.6-0.2,1-0.6,1.9-1l0.2,0.3l0.8,0.2v-0.2c0.2,0,0.6-0.3,0.6-0.3
		v-0.2c0-0.3,0.5-0.6,0.5-0.8h0.8v0.2h0.5c0.1,0,0.1-0.2,0.5-0.2c0,0,0.2-0.3,0.5-0.3c0.2-0.2,0.6-0.5,0.6-0.5h0.8
		c0.2-0.2,0.5,0,0.6,0.3c0.3,0.2,0.8,0.5,0.8,0.5s0.5,0.2,0.6,0c0-0.3,0.3-0.3,0.5-0.3c0.3,0,0.3-0.2,0.3-0.5c0,0,0-0.2,0.2-0.5
		c0-0.1,0.5-0.5,0.5-0.5s0.5,0,0.5-0.5c0-0.2,0.5-0.5,0.8-0.5c0.1,0,0-0.2,0.6,0c0.8,0,0.8-0.2,0.8-0.5c0-0.2,0-0.5,0.5-0.5
		c0.5,0,0.5,0,0.5-0.2c0.2-0.3,0.5-0.3-0.3-0.5c-0.6,0-0.5,0-0.6-0.3c0-0.2,0-0.2-0.5-0.2s-0.3-0.3-0.3-0.5c0-0.5-0.2-0.5-0.2-0.8
		c0,0-0.3,0-0.5-0.2c0-0.3,0-0.5-0.3-0.3c-0.2,0-0.5,0-0.2-0.2c0-0.3,0-0.5,0.2-0.5c0.3,0,0.3-0.3,0.3-0.5v-0.8l0.1-0.5
		c0,0,1-1,1.3-1c0-0.1,0.1-0.1,0.5,0c0.2,0.3,0.2,0.5,0.5,0.5c0,0.3,0.5,0,0.5,0c0.1-0.2,0.1-1,0.1-1.1c0.3-0.3,0.5-0.5,0.5-0.8
		c0-0.2,0.3-0.5,0.5-0.5c0.3,0,0.5-0.5,0.5-0.6c0,0,0-0.5,0.3-0.5c0.5,0,0.5-0.3,0.6,0c0,0.5,0.3,0.5,0.5,0.5c0.3,0,0.5,0.2,0.8,0
		c0,0,0.2-0.5,0.5-0.3c0.2,0.3,0.5,0,0.5-0.2v-0.8c0,0,0-0.2,0.5-0.2c0.2,0,0-0.3,0.2-0.5c0.3-0.3,0.3-0.3,0.5-0.3
		c0.3,0,0.8,0,0.5-0.5c-0.2-0.2-0.6-0.5-0.5-1c0.3-0.2,0.3-0.6,0-0.6c-0.2,0-0.5,0-0.5-0.3c-0.2-0.2-0.2-0.5,0-0.5
		c0.3-0.2,1-0.2,1-0.5c0.3,0,0.8-0.2,0.8-0.6c0-0.5,0.2-0.5,0.2-0.8c0-0.2,0-0.6-0.2-0.9c-0.3-0.2-0.5-0.5-0.5-0.6
		c-0.3-0.3-0.5-0.5-0.8-0.5c-0.5-0.3-0.6-0.3-0.6-0.5c0-0.3,0.2,0,0.2-0.5c0-0.8-0.5-1-0.5-1l-0.6-0.3c0,0-1.3-0.2-1.4-0.2
		c-0.5,0-0.8-0.3-0.5-0.5c0.5-0.3,0.5-0.8,0.5-1c-0.3-0.3-0.5-0.5-1-0.5c-0.5,0-0.5-0.3-0.5-0.8c0.1-0.2,0.5-0.2,0.6-0.2
		c0.3,0.2,0.8,0.2,1,0c0.5,0,0.5-0.3,0.8,0c0.2,0,0.5,0.2,0.6,0c0.3-0.3,0.8-0.3,0.9-0.3h1c0.3,0,0.5-0.5,0.5-0.5
		c0-0.3,0.3-0.8,0.5-0.8c0.3-0.2,0.5-0.6,0.8-0.6c0.2,0,0.2-0.3,0.2-0.5c0,0,0.3-0.3,0.3-0.5c0-0.3,0.5-0.3,0.6,0
		c0.3,0.2,0.8,0.2,0.8,0.2s0.5,0,0.6-0.2h1.1c0.1,0.5,0.6,0.2,0.6,0.2v-0.5v-0.5c-0.2,0-0.5-0.2,0-0.5c0.3-0.5,0.3-0.5,0.5-0.5h1
		c0.3,0,0.8,0.5,0.8,0.5c0,0.3,0.2,0.5,0.5,0.5c0.2,0.3,0.5,0.3,0.5,0.8c0,0,0,0.2,0.2,0.2c0.3,0,0.3,0,0.3,0.3
		c0,0.2,0.2,0.2,0.5,0.5c0.2,0,0.2,0.2,0.5,0.5c0,0-0.3,0.2,0,0.5c0,0.2,0.5,0.5,0.5,0.5s0.1,0.5-0.3,0.3c-0.6-0.3-0.6-0.6-1.1-0.3
		l-0.3,0.3h-0.5c-0.2,0-0.5,0.5,0,0.5c0.3,0.2,0.5,0.2,0.5,0.5c0,0.5-0.2,0.2-0.2,0.5c-0.3,0.1-0.5,0-0.8,0.1c-0.2,0-0.5,0-0.5,0.5
		c0.3,0.3,0.3,0,0.5,0.3c0,0.2,0.3,0.2,0.5,0c0.3-0.3,0.5-0.3,0.8,0.2c0,0.3,0.2,0.3,0.5,0.3c0.2,0,0.2,0,0.5-0.3
		c0.2-0.2,0.5,0,0.6,0.3c0,0.5,0.3,0.5,0.5,0.5c0.3,0.2,0.3,0.2,0.5,0.5c0,0.2,0,0.2,0.3,0h0.6c0.3,0.2,0.5,0.5,0.5,0.5v0.5l1,0.2
		v0.5h0.5h0.5c0,0,0.5,0,0.5-0.5l0.3-0.2c0.2,0,0.6,0,0.9-0.3c0,0,0.5-0.1,1,0c0.2,0,1,0.3,1,0.3s0,0.2,0.2,0.5c0.3,0.5,1,0.2,1,0.2
		v0.8c0.3,0.2,0.5,0.2,0.8,0c0.2-0.3,0.5-0.5,1-0.5c0.2,0,0.2,0,0.2-0.3c0,0-0.2-0.2-0.2-0.5c0-0.2,0.2-0.2,0.2-0.5
		c0-0.1,0.5,0,0.5,0c0.3,0.3,0.5,0.5,0.5,0.5c0,0.3,0.5,0.8,0.8,1c0.1,0,0.6,0,1-0.2c0.2-0.3,0.6-0.3,0.5,0.2c0,0.5,0,0.5,0.5,0.8
		c0.2,0.2,0.2,0.6,0,1c-0.3,0-0.5,0-0.5,0.5c0.1,0.2,0.1,0.5,0.1,0.6c0.3,0,0.5,0.3,0.5,0.5l0.3,0.8l0.2,0.9c0,0.2-0.2,0.5,0.3,0.5
		c0.5,0,0.5,0,0.5,0.2c0,0.3,0.2,0.5,0,0.8c-0.3,0-0.3,0.5,0,0.5c0,0,0.2,0.1,0.5,0.1c0,0.3,0.5,0.5,0.5,0.5
		c0.2-0.2,0.2-0.5,0.5-0.5c0.2,0,0.5,0,0.2-0.1c-0.2-0.3-0.2-0.5-0.2-0.8c0.2,0,0.2-0.5,0.2-0.5s0.5-0.2,0.8,0
		c0.2,0.5,0.2,0.3,0.5,0.3c0.2,0,0.2,0.2,0.5,0.2c0,0.5,0.5,0.3,0.5,0.8v0.9c0,0,0,0.5,0.5,0.6c0.2,0.3,0.2,0.3,0,0.5v0.5
		c0,0.3,0.2,0.3,0,0.5c-0.5,0.3-0.5,0.5-0.3,0.8c0,0.2,0,0.2,0.5,0.6c0.3,0.3,0.3,0.5,0.3,0.5c0,0.3,0.5,0.5,0.5,0.8
		c0,0.2,0.2,0.5,0.8,0.5c0,0,0.5,0.5,0.5,0.6v0.8h0.2h0.5c0-0.5,0.5-0.5,0.5-0.5c0.3-0.3,0.8-0.3,0.8-0.3c0.1,0.3,0.5,0.3,0.6,0.3
		c0.3,0,1-0.3,1-0.3s0.3,0,0.5,0.5c0,0.3,0.5,0.5,0.3,0.8c0,0.2,0,0.5,0.2,0.5c0.3,0,0.5,0,0.5,0.2c0,0.3,0,0.3,0.3,0.3
		c0.2-0.3,0.5-0.3,0.5,0c0.1,0,0.1,0,0.5,0.2c0.2,0,0.5,0,0.5-0.2c0.2-0.3,0.6-0.5,0.6-0.5h1c0.3,0,0.8,0.2,0.8,0.2s0.2,0.3,0,0.5
		v0.8c0.2,0.5,0,0.5-0.3,0.5c-0.1-0.3-0.5-0.3-0.5,0.2v0.8v0.2c-0.2,0.3-0.5,0.5,0,0.5c0.3,0,0,0.3,0.3,0.5c0,0.3-0.3,0.5-0.3,0.5
		s0.3,0.3-0.2,0.3c-0.3,0.2-0.5,0-0.5,0.2c-0.3,0.3-0.5,0.5-0.3,0.8c0.5,0.2,0.5,0.2,0.3,0.5c-0.3,0-0.3,0.5,0,0.8
		c0.5,0,0.5,0,0.2,0.2c-0.2,0.3-0.6,0.5-0.6,0.8c0,0.2,0,0.2-0.3,0.2c-0.5,0-0.5,0.5-0.2,0.8c0.5,0.5,0.5,0.5,0.6,0.5
		c0.3,0,0.3-0.5,0.3-0.5h1c0.1,0,0.5,0,0.6-0.3c0.3,0,0.8-0.2,0.8,0c0,0.5,0.2,0.5,0.2,0.5c0.5,0.3,0.5,0,0.5,0.3
		c0.3,0.2,0.5,0,0.5-0.3c0-0.2,0.3-0.5,0.8-0.2c0.1,0.2,0.1,0.2,0.5,0.2c0.2,0,0.2,0,0.2,0.3c0,0.2,0.3,0.2,0.8,0.2
		c0.3,0,0.5,0.3,0.5,0.3l0.2,0.2c0.3,0,0.5,0,0.8-0.2c0,0,0.1-0.5,0.5,0c0,0,0.5,0,0.5-0.3c0-0.5,0.5-0.5,0.6-0.2
		c0.3,0.2,0.5,0.2,0.8,0.2c0.1,0,0.5,0,0.6,0.3c0,0.2,0.8,0.5,0.3,1c-0.3,0-0.3,0.2-0.3,0.5c0.3,0,0.5,0,0.5,0.5c0.3,0,1,0,1.3,0.2
		c0.2,0,0.5,0,0.6-0.2c0.3-0.3,0.8-0.3,0.8,0v0.6c0,0,0.5,0.5,0.5,0.8c0,0.1-0.3,0.1,0.1,0.5c0.5,0.2,0.5,0.2,0.8,0
		c0.5-0.3,0.5-0.3,0.5-0.5V422c0,0,0.2,0,0.5-0.2c0.2,0,1-0.8,1.1-0.5c0.3,0.2,0.5,0.2,0.5,0h0.8c0.2,0,0.5,0,0.9-0.3
		c0.2-0.2,0.2-0.2,0.5,0c0.2,0,0.2,0.5,0.2,0.5c-0.2,0.3,0,0.5,0.3,0.5c0.3,0,0.5,0.3,0.5,0.5c0,0.3,0,0.5,0.3,0.5
		c0,0.3,0,0.5,0.5,0.5c0.5,0,0.5,0.3,0.5,0.5C398.3,424.3,398.3,424.4,398.1,424.4z M412,381.6l-7-4.1l-5.9,5.1l1.9-7.6l-7-4.1
		l8.1-0.5l1.9-7.3l3.2,7.2l7.8-0.5l-6.2,4.8L412,381.6z"/>
	<path class="st0" d="M454.7,403.3c-0.1,0-0.2-0.1-0.3-0.2c0.1,0,0.2-0.1,0.3-0.1V403.3z"/>
	<path class="st0" d="M406.1,520.7c9-0.9,56.4,6.5,57.4,12.2c3.2,18.5-49.1-3.6-55.2,15.7C405.3,534.9,405.1,530.9,406.1,520.7"/>
	<path class="st0" d="M636.9,534.3c5.5-0.5,33.3,7.6,33.9,11.2c2,11.3-23.8-2.3-27.6,9.5C636.8,547.7,636.3,540.5,636.9,534.3"/>
</g>
</svg>
