<?xml version="1.0" encoding="utf-8"?>
<!-- Generator: Adobe Illustrator 21.1.0, SVG Export Plug-In . SVG Version: 6.00 Build 0)  -->
<svg version="1.1" id="Layer_1" xmlns="http://www.w3.org/2000/svg" xmlns:xlink="http://www.w3.org/1999/xlink" x="0px" y="0px"
	 viewBox="0 0 124.5 102.7" style="enable-background:new 0 0 124.5 102.7;" xml:space="preserve">
<style type="text/css">
	.st0{fill:#0059AA;}
	.st1{fill:none;stroke:#FFCB05;stroke-width:0.8504;}
	.st2{fill-rule:evenodd;clip-rule:evenodd;fill:#FFFFFF;}
	.st3{fill:#005BAA;}
	.st4{fill-rule:evenodd;clip-rule:evenodd;fill:#005BAA;}
	.st5{fill-rule:evenodd;clip-rule:evenodd;fill:#D2AB67;}
	.st6{fill-rule:evenodd;clip-rule:evenodd;fill:#0DB14B;}
	.st7{fill:#FFFFFF;}
	.st8{fill-rule:evenodd;clip-rule:evenodd;fill:#FFCB05;}
</style>
<path class="st0" d="M41.3,98.9v-0.7l0,0c0.3,0,0.5,0,0.6-0.1c0.2-0.1,0.4-0.1,0.5-0.4c0.1-0.1,0.2-0.3,0.3-0.5
	c0.1-0.2,0.1-0.5,0.1-0.7c0-0.3-0.1-0.5-0.1-0.7c-0.1-0.2-0.1-0.4-0.3-0.6c-0.1-0.1-0.3-0.3-0.5-0.4c-0.1-0.1-0.4-0.1-0.6-0.1l0,0
	V94h0.1c0.4,0,0.6,0.1,1,0.2c0.3,0.1,0.6,0.3,0.8,0.5c0.2,0.2,0.4,0.4,0.5,0.7c0.1,0.4,0.1,0.6,0.1,1.1c0,0.4-0.1,0.6-0.2,1
	c-0.1,0.3-0.3,0.5-0.5,0.7c-0.2,0.3-0.4,0.4-0.7,0.6C42,98.9,41.8,98.9,41.3,98.9L41.3,98.9L41.3,98.9z M41.3,90.9V86H42l1.3,1.9
	c0.1,0.1,0.1,0.2,0.2,0.3c0.1,0.1,0.1,0.2,0.1,0.3l0,0c0.1-0.1,0.1-0.2,0.1-0.3c0.1-0.1,0.1-0.2,0.1-0.3l1.3-1.9H46v4.9h-0.9v-2.9
	c0-0.1,0-0.2,0-0.3c0-0.1,0-0.2,0-0.3l0,0c0,0.1-0.1,0.1-0.1,0.2c-0.1,0.1-0.1,0.2-0.2,0.3l-1,1.6h-0.4L42.3,88
	c-0.1-0.1-0.1-0.1-0.1-0.2c-0.1-0.1-0.1-0.1-0.1-0.3H42c0,0.1,0.1,0.1,0.1,0.3c0,0.1,0,0.1,0,0.2v3H41.3L41.3,90.9z M47.9,90.9H47
	V86h0.9V90.9L47.9,90.9z M52.6,90.9h-1.1l-1.7-2.2h-0.1v2.2h-0.9V86h0.9v2.1h0.1l1.6-2h1.1l-1.9,2.3L52.6,90.9L52.6,90.9z
	 M55.9,90.9h-2.7V86h2.7l-0.3,0.8h-1.5v1.2h1.5v0.8h-1.5v1.3h1.8V90.9L55.9,90.9z M48.9,94l-2.1,4.9h-0.6L44.2,94h0.9l1,2.7
	c0.1,0.1,0.1,0.3,0.2,0.4c0,0.1,0.1,0.3,0.1,0.4l0,0c0-0.1,0.1-0.3,0.1-0.4c0.1-0.1,0.1-0.3,0.1-0.4L48,94H48.9L48.9,94z M52.1,98.9
	h-2.7V94h2.7l-0.2,0.7h-1.6V96h1.6v0.7h-1.6v1.4h1.8V98.9L52.1,98.9z M51.9,93.2c0,0.1,0,0.2-0.1,0.3c-0.1,0.1-0.1,0.1-0.3,0.1
	c-0.1,0-0.3,0-0.4-0.1C51,93.5,51,93.4,51,93.2c0-0.1,0.1-0.2,0.1-0.4c0.1-0.1,0.2-0.1,0.4-0.1c0.1,0,0.2,0.1,0.3,0.1
	C51.9,93,51.9,93.1,51.9,93.2L51.9,93.2z M50.5,93.2c0,0.1-0.1,0.2-0.1,0.3c-0.1,0.1-0.2,0.1-0.3,0.1c-0.1,0-0.3,0-0.4-0.1
	c-0.1-0.1-0.1-0.1-0.1-0.3c0-0.1,0.1-0.2,0.1-0.4c0.1-0.1,0.2-0.1,0.4-0.1c0.1,0,0.2,0.1,0.3,0.1C50.5,93,50.5,93.1,50.5,93.2
	L50.5,93.2z M55.9,97.6c0,0.2-0.1,0.4-0.1,0.6c-0.1,0.1-0.2,0.3-0.4,0.4c-0.1,0.1-0.4,0.2-0.5,0.3c-0.2,0.1-0.5,0.1-0.7,0.1
	c-0.6,0-1.1-0.1-1.5-0.4l0.4-0.6c0.4,0.2,0.7,0.4,1.1,0.4c0.3,0,0.5-0.1,0.6-0.1c0.1-0.1,0.2-0.2,0.2-0.4c0-0.2-0.2-0.4-0.6-0.6
	l-1-0.6c-0.4-0.3-0.5-0.6-0.5-1.1c0-0.2,0-0.4,0.1-0.6c0.1-0.1,0.2-0.3,0.4-0.4c0.1-0.1,0.3-0.2,0.5-0.2C54,94,54.2,94,54.5,94
	c0.4,0,0.9,0.1,1.2,0.3V95c-0.4-0.2-0.8-0.4-1.2-0.4c-0.2,0-0.4,0.1-0.5,0.1c-0.1,0.1-0.1,0.2-0.1,0.4c0,0.2,0.1,0.5,0.5,0.7l1,0.6
	C55.7,96.8,55.9,97.1,55.9,97.6z M41.3,86v4.9h-0.2V86H41.3L41.3,86z M41.3,94v0.8c-0.2,0-0.4,0-0.6,0.1c-0.2,0.1-0.4,0.2-0.5,0.4
	c-0.1,0.1-0.2,0.4-0.3,0.6c-0.1,0.2-0.1,0.4-0.1,0.7c0,0.2,0.1,0.5,0.1,0.7c0.1,0.2,0.1,0.4,0.3,0.5c0.1,0.2,0.3,0.3,0.5,0.4
	c0.1,0.1,0.4,0.1,0.6,0.1v0.7c-0.4,0-0.6-0.1-0.9-0.1c-0.4-0.1-0.6-0.3-0.8-0.5c-0.2-0.2-0.4-0.5-0.5-0.8c-0.1-0.3-0.2-0.6-0.2-1
	c0-0.4,0.1-0.7,0.2-1c0.1-0.3,0.3-0.6,0.5-0.8c0.2-0.2,0.4-0.4,0.8-0.5C40.7,94,41,94,41.3,94L41.3,94z M37.9,98.6v-2.1
	c0.4,0.3,0.5,0.6,0.5,1.1c0,0.2,0,0.4-0.1,0.6C38.2,98.3,38.1,98.4,37.9,98.6L37.9,98.6L37.9,98.6z M37.9,94.9v-0.8
	c0.1,0.1,0.2,0.1,0.3,0.1L38.1,95C38,95,37.9,95,37.9,94.9L37.9,94.9z M37.9,91v-0.7l0,0c0.2,0,0.4-0.1,0.6-0.1
	c0.2-0.1,0.4-0.2,0.5-0.4c0.1-0.1,0.2-0.4,0.3-0.6c0.1-0.2,0.1-0.4,0.1-0.7c0-0.2,0-0.5-0.1-0.7c-0.1-0.2-0.1-0.4-0.3-0.5
	c-0.1-0.1-0.3-0.3-0.5-0.4c-0.2-0.1-0.4-0.1-0.6-0.1l0,0V86l0,0c0.4,0,0.7,0.1,1,0.1c0.4,0.1,0.6,0.3,0.8,0.5
	c0.2,0.2,0.4,0.5,0.5,0.8c0.1,0.3,0.2,0.6,0.2,1c0,0.4-0.1,0.7-0.2,1c-0.1,0.3-0.3,0.6-0.5,0.8c-0.2,0.2-0.5,0.4-0.8,0.5
	C38.6,90.9,38.2,91,37.9,91L37.9,91z M37.9,86v0.7c-0.2,0-0.4,0.1-0.6,0.1c-0.1,0.1-0.4,0.2-0.4,0.4c-0.1,0.1-0.3,0.3-0.4,0.5
	c-0.1,0.2-0.1,0.5-0.1,0.7c0,0.3,0,0.5,0.1,0.7c0.1,0.2,0.2,0.4,0.4,0.6c0.1,0.1,0.3,0.3,0.4,0.4c0.2,0.1,0.4,0.1,0.6,0.1V91
	c-0.4,0-0.7-0.1-1-0.2c-0.3-0.1-0.6-0.3-0.8-0.5c-0.2-0.2-0.4-0.4-0.5-0.7c-0.1-0.3-0.1-0.6-0.1-1c0-0.4,0.1-0.7,0.1-1
	c0.1-0.4,0.3-0.6,0.5-0.8c0.2-0.3,0.5-0.4,0.8-0.6C37.2,86.1,37.5,86,37.9,86L37.9,86z M37.9,94.1v0.8c-0.3-0.1-0.6-0.2-0.9-0.2
	c-0.2,0-0.4,0.1-0.5,0.1c-0.1,0.1-0.2,0.2-0.2,0.4c0,0.2,0.1,0.5,0.6,0.7l1,0.6l0,0v2.1c-0.1,0.1-0.3,0.2-0.5,0.3
	c-0.2,0.1-0.4,0.1-0.7,0.1c-0.5,0-1-0.1-1.4-0.4l0.4-0.6c0.4,0.2,0.7,0.4,1.1,0.4c0.2,0,0.4-0.1,0.6-0.1c0.1-0.1,0.2-0.2,0.2-0.4
	c0-0.2-0.1-0.4-0.5-0.6l-1-0.6c-0.4-0.3-0.6-0.6-0.6-1.1c0-0.2,0.1-0.4,0.1-0.6c0.1-0.1,0.1-0.3,0.3-0.4c0.1-0.1,0.4-0.2,0.5-0.2
	c0.2-0.1,0.4-0.1,0.6-0.1C37.3,94,37.6,94,37.9,94.1L37.9,94.1z M32.2,98.9v-0.7l0,0c0.2,0,0.4,0,0.6-0.1c0.1-0.1,0.4-0.1,0.4-0.4
	c0.1-0.1,0.3-0.3,0.4-0.5c0.1-0.2,0.1-0.5,0.1-0.7c0-0.3,0-0.5-0.1-0.7c-0.1-0.2-0.2-0.4-0.4-0.6c-0.1-0.1-0.3-0.3-0.4-0.4
	c-0.2-0.1-0.4-0.1-0.6-0.1l0,0V94l0,0c0.4,0,0.7,0.1,1,0.2c0.3,0.1,0.6,0.3,0.8,0.5c0.2,0.2,0.4,0.4,0.5,0.7
	c0.1,0.4,0.1,0.6,0.1,1.1c0,0.4,0,0.6-0.1,1c-0.1,0.3-0.3,0.5-0.5,0.7c-0.2,0.3-0.5,0.4-0.8,0.6C32.9,98.9,32.5,98.9,32.2,98.9
	L32.2,98.9L32.2,98.9z M32.2,88.8v-1.4l1.1,1.4c0.2,0.3,0.4,0.6,0.5,0.7l0,0c0-0.1,0-0.2,0-0.3c0-0.1,0-0.3,0-0.4V86h0.9v4.9h-0.8
	L32.2,88.8z M32.2,87.3v1.4l-0.6-0.7c-0.1-0.1-0.2-0.2-0.3-0.4c-0.1-0.1-0.1-0.2-0.1-0.3h-0.1c0.1,0.1,0.1,0.4,0.1,0.6v2.9h-0.9V86
	h0.9L32.2,87.3L32.2,87.3z M32.2,94v0.8c-0.2,0-0.4,0-0.6,0.1c-0.2,0.1-0.4,0.2-0.5,0.4c-0.1,0.1-0.2,0.4-0.3,0.6
	c-0.1,0.2-0.1,0.4-0.1,0.7c0,0.2,0,0.5,0.1,0.7c0.1,0.2,0.1,0.4,0.3,0.5c0.1,0.2,0.3,0.3,0.5,0.4c0.2,0.1,0.4,0.1,0.6,0.1v0.7
	c-0.4,0-0.7-0.1-1-0.1c-0.3-0.1-0.6-0.3-0.8-0.5c-0.2-0.2-0.4-0.5-0.5-0.8c-0.1-0.3-0.1-0.6-0.1-1c0-0.4,0-0.7,0.1-1
	c0.1-0.3,0.3-0.6,0.5-0.8c0.2-0.2,0.5-0.4,0.8-0.5C31.5,94,31.8,94,32.2,94L32.2,94z M27,97.3v-1.7l1.2-1.5h1l-1.9,2.3l2,2.5h-1.1
	L27,97.3L27,97.3z M27,91v-0.7l0,0c0.3,0,0.4-0.1,0.6-0.1c0.2-0.1,0.4-0.2,0.5-0.4c0.1-0.1,0.2-0.4,0.3-0.6c0.1-0.2,0.1-0.4,0.1-0.7
	c0-0.2-0.1-0.5-0.1-0.7c-0.1-0.2-0.1-0.4-0.3-0.5c-0.1-0.1-0.3-0.3-0.5-0.4c-0.2-0.1-0.4-0.1-0.6-0.1l0,0V86l0,0
	c0.4,0,0.7,0.1,1,0.1c0.4,0.1,0.6,0.3,0.8,0.5c0.2,0.2,0.4,0.5,0.5,0.8c0.1,0.3,0.2,0.6,0.2,1c0,0.4-0.1,0.7-0.2,1
	c-0.1,0.3-0.3,0.6-0.5,0.8c-0.2,0.2-0.4,0.4-0.8,0.5C27.7,90.9,27.4,91,27,91L27,91z M27,86v0.7c-0.2,0-0.4,0.1-0.6,0.1
	c-0.1,0.1-0.3,0.2-0.4,0.4c-0.1,0.1-0.3,0.3-0.4,0.5c-0.1,0.2-0.1,0.5-0.1,0.7c0,0.3,0,0.5,0.1,0.7c0.1,0.2,0.2,0.4,0.4,0.6
	c0.1,0.1,0.3,0.3,0.4,0.4c0.2,0.1,0.4,0.1,0.6,0.1V91c-0.4,0-0.6-0.1-1-0.2c-0.3-0.1-0.6-0.3-0.8-0.5c-0.2-0.2-0.4-0.4-0.5-0.7
	c-0.1-0.3-0.1-0.6-0.1-1c0-0.4,0.1-0.7,0.1-1c0.1-0.4,0.3-0.6,0.6-0.8c0.2-0.3,0.4-0.4,0.7-0.6C26.4,86.1,26.6,86,27,86L27,86z
	 M27,95.5v1.7l-0.4-0.5l0,0v2.1h-0.9V94h0.9v2.1l0,0L27,95.5L27,95.5z M12.4,89.7V89H13l-0.4-1.2c0-0.1-0.1-0.2-0.1-0.3
	c-0.1-0.1-0.1-0.2-0.1-0.3l0,0h-0.1V86h0.4l1.9,4.9h-0.9l-0.4-1.2H12.4L12.4,89.7z M19.7,90.9H17V86h2.7l-0.3,0.8h-1.5v1.2h1.5v0.8
	h-1.5v1.3h1.8V90.9L19.7,90.9z M24.3,90.9h-1.2l-1.7-2.2l0,0v2.2h-0.9V86h0.9v2.1l0,0l1.7-2h1.1l-1.9,2.3L24.3,90.9L24.3,90.9z
	 M23.1,98.9h-2.7V94h2.7l-0.2,0.7h-1.6V96h1.6v0.7h-1.6v1.4h1.8V98.9z M12.4,86v1.2c0,0.1-0.1,0.4-0.1,0.6L11.8,89h0.6v0.7h-0.9
	l-0.4,1.2h-0.9l1.9-4.9H12.4L12.4,86z M7.8,90.9v-0.8c0.3-0.1,0.5-0.1,0.7-0.4c0.3-0.3,0.4-0.7,0.4-1.2c0-0.6-0.1-1-0.4-1.2
	C8.3,87,8.1,87,7.8,86.9v-0.8c0.2,0,0.4,0.1,0.5,0.1c0.4,0.1,0.6,0.2,0.9,0.4c0.2,0.2,0.4,0.4,0.6,0.8c0.1,0.3,0.1,0.6,0.1,0.9
	c0,0.4-0.1,0.7-0.1,1.1c-0.1,0.3-0.4,0.5-0.6,0.7c-0.3,0.2-0.6,0.4-0.9,0.5C8.1,90.8,7.9,90.9,7.8,90.9z M5,88.5
	c0,0.4-0.1,0.7-0.2,1c-0.1,0.3-0.3,0.6-0.5,0.8c-0.2,0.2-0.4,0.4-0.8,0.5c-0.3,0.1-0.6,0.2-1,0.2l0,0v-0.7l0,0
	c0.3,0,0.5-0.1,0.6-0.1c0.2-0.1,0.4-0.2,0.5-0.4c0.1-0.1,0.2-0.4,0.3-0.6C4,89,4,88.8,4,88.5C4,88.3,4,88,3.9,87.8
	c-0.1-0.2-0.1-0.4-0.3-0.5c-0.1-0.1-0.3-0.3-0.5-0.4c-0.1-0.1-0.4-0.1-0.6-0.1l0,0V86l0,0c0.4,0,0.7,0.1,1.1,0.1
	c0.3,0.1,0.5,0.3,0.7,0.5c0.2,0.2,0.4,0.5,0.5,0.8C4.9,87.8,5,88.1,5,88.5L5,88.5z M7.8,86.1v0.8c-0.2-0.1-0.4-0.1-0.6-0.1H6.6v3.3
	h0.6c0.2,0,0.4,0,0.6-0.1v0.8c-0.2,0.1-0.4,0.1-0.6,0.1H5.7V86h1.5C7.4,86,7.6,86.1,7.8,86.1z M2.4,91c-0.4,0-0.6-0.1-1-0.2
	c-0.3-0.1-0.5-0.3-0.8-0.5c-0.2-0.2-0.4-0.4-0.5-0.7c-0.1-0.3-0.1-0.6-0.1-1c0-0.4,0.1-0.7,0.1-1c0.1-0.4,0.4-0.6,0.6-0.8
	c0.2-0.3,0.4-0.4,0.8-0.6C1.8,86.1,2.1,86,2.4,86v0.7c-0.2,0-0.4,0.1-0.6,0.1c-0.1,0.1-0.3,0.2-0.4,0.4c-0.1,0.1-0.3,0.3-0.4,0.5
	c-0.1,0.2-0.1,0.5-0.1,0.7c0,0.3,0,0.5,0.1,0.7c0.1,0.2,0.2,0.4,0.4,0.6c0.1,0.1,0.3,0.3,0.4,0.4c0.2,0.1,0.4,0.1,0.6,0.1V91z"/>
<path class="st0" d="M122.4,89.2v-0.9c0.1,0,0.3-0.1,0.4-0.2c0.1-0.1,0.2-0.3,0.2-0.5c0-0.3-0.1-0.4-0.2-0.6
	c-0.1-0.1-0.3-0.1-0.4-0.1V86c0.4,0.1,0.8,0.1,1.1,0.4c0.3,0.3,0.4,0.6,0.4,1.1c0,0.3-0.1,0.5-0.2,0.7c-0.1,0.3-0.4,0.4-0.6,0.5l0,0
	c0.1,0.1,0.3,0.3,0.5,0.7l0.9,1.5h-1l-0.9-1.4C122.5,89.4,122.5,89.3,122.4,89.2z M122.4,86v0.8c-0.1,0-0.1,0-0.1,0h-0.4v1.4h0.4
	c0.1,0,0.1,0,0.1,0v0.9c-0.1-0.1-0.1-0.1-0.2-0.1h-0.4v1.9h-0.9V86h1.3C122.3,86,122.3,86,122.4,86L122.4,86z M114.9,90.9v-0.8
	c0.6,0,0.9-0.2,0.9-0.7c0-0.1-0.1-0.4-0.2-0.4c-0.1-0.1-0.3-0.1-0.6-0.1h-0.1v-0.8c0.1,0,0.3-0.1,0.4-0.1c0.1-0.1,0.2-0.3,0.2-0.5
	c0-0.2-0.1-0.4-0.1-0.4c-0.1-0.1-0.3-0.1-0.4-0.1V86h0.1c0.2,0,0.4,0.1,0.6,0.1c0.1,0,0.3,0.1,0.4,0.2c0.1,0.1,0.2,0.3,0.3,0.4
	c0.1,0.1,0.1,0.3,0.1,0.5c0,0.4-0.1,0.8-0.6,1l0,0c0.6,0.1,0.9,0.5,0.9,1.1c0,0.2-0.1,0.4-0.1,0.6c-0.1,0.1-0.2,0.3-0.4,0.4
	c-0.1,0.1-0.4,0.2-0.5,0.3C115.5,90.9,115.2,90.9,114.9,90.9L114.9,90.9L114.9,90.9z M120.1,90.9h-2.7V86h2.7l-0.2,0.8h-1.6v1.2h1.6
	v0.7h-1.6v1.4h1.8V90.9z M114.9,86v0.8h-0.1h-0.5v1.2h0.5h0.1v0.8h-0.6v1.3h0.6l0,0v0.8h-1.4V86H114.9L114.9,86z M104.8,98.9v-0.9
	c0.1,0.1,0.1,0.1,0.2,0.1c0.1,0.1,0.4,0.1,0.6,0.1c0.4,0,0.8-0.1,1.2-0.4l0.2,0.6c-0.4,0.3-1,0.4-1.6,0.4
	C105.3,98.9,105,98.9,104.8,98.9L104.8,98.9z M104.8,95v-0.9c0.3-0.1,0.6-0.1,0.9-0.1c0.5,0,0.9,0.1,1.2,0.3V95
	c-0.4-0.2-0.8-0.4-1.2-0.4c-0.2,0-0.5,0.1-0.7,0.1C104.9,94.9,104.8,94.9,104.8,95L104.8,95z M104.8,89.7V89h0.6l-0.4-1.2
	c0-0.1-0.1-0.2-0.1-0.3c0-0.1-0.1-0.2-0.1-0.3l0,0l0,0V86h0.3l1.9,4.9h-0.9l-0.4-1.2H104.8L104.8,89.7z M112.5,90.9h-0.9v-2.9
	c0-0.1,0-0.2,0-0.4c0-0.1,0-0.1,0-0.2l0,0c-0.1,0.1-0.1,0.1-0.1,0.2c0,0.1-0.1,0.2-0.1,0.3l-1,1.6h-0.4l-1.1-1.6
	c-0.1-0.1-0.1-0.1-0.1-0.2c-0.1-0.1-0.1-0.1-0.2-0.3l0,0c0,0.1,0,0.1,0,0.3c0,0.1,0,0.1,0,0.2v3h-0.9V86h0.9l1.3,1.9
	c0.1,0.1,0.1,0.2,0.2,0.3c0.1,0.1,0.1,0.1,0.1,0.2l0,0c0-0.1,0.1-0.1,0.1-0.2c0.1-0.1,0.1-0.2,0.1-0.3l1.2-1.9h0.9V90.9L112.5,90.9z
	 M110.4,98.9h-2.7V94h2.7l-0.2,0.7h-1.6V96h1.6v0.8h-1.6v1.4h1.8V98.9z M104.8,86v1.2c-0.1,0.1-0.1,0.4-0.2,0.6l-0.4,1.2h0.6v0.7
	h-0.9l-0.4,1.2h-0.9l1.9-4.9H104.8L104.8,86z M104.8,94.1V95c-0.1,0.1-0.2,0.1-0.3,0.2c-0.1,0.1-0.3,0.4-0.4,0.6
	c-0.1,0.2-0.1,0.4-0.1,0.6c0,0.3,0,0.5,0.1,0.7c0.1,0.2,0.2,0.4,0.4,0.6c0.1,0.1,0.1,0.1,0.3,0.2v0.9c-0.1-0.1-0.2-0.1-0.3-0.1
	c-0.3-0.1-0.5-0.2-0.7-0.4c-0.2-0.2-0.4-0.5-0.5-0.8c-0.1-0.3-0.2-0.6-0.2-1c0-0.4,0.1-0.7,0.2-1c0.1-0.3,0.3-0.6,0.6-0.8
	c0.2-0.2,0.5-0.4,0.8-0.5C104.7,94.1,104.7,94.1,104.8,94.1L104.8,94.1z M100.7,97.1v-0.9c0.1,0,0.3-0.1,0.4-0.1
	c0.2-0.1,0.3-0.4,0.3-0.6c0-0.2-0.1-0.4-0.2-0.5c-0.1-0.1-0.3-0.1-0.4-0.2V94c0.4,0,0.8,0.1,1.1,0.4c0.3,0.2,0.4,0.6,0.4,1
	c0,0.3-0.1,0.6-0.2,0.8c-0.1,0.2-0.4,0.4-0.6,0.4l0,0c0.1,0.1,0.3,0.3,0.5,0.7l0.9,1.5h-1l-0.9-1.4
	C100.8,97.3,100.7,97.2,100.7,97.1L100.7,97.1z M100.7,88.8v-0.8h0.4v-2h0.9v4.9h-0.9v-2.1H100.7z M100.7,88.1v0.8h-1.9v2.1h-0.9V86
	h0.9v2H100.7L100.7,88.1z M100.7,94v0.7c-0.1,0-0.1,0-0.2,0H100v1.4h0.5c0,0,0.1,0,0.1,0v0.9c-0.1-0.1-0.1-0.1-0.2-0.1H100v1.9h-0.9
	V94h1.3C100.5,94,100.6,94,100.7,94L100.7,94z M88.8,89.7V89h0.6L89,87.8c-0.1-0.1-0.1-0.2-0.1-0.3c-0.1-0.1-0.1-0.2-0.1-0.3h-0.1
	l0,0V86h0.4l1.9,4.9h-0.9l-0.5-1.2H88.8L88.8,89.7z M97.2,90.6c-0.5,0.3-1,0.4-1.6,0.4c-0.4,0-0.7-0.1-1-0.2
	c-0.3-0.1-0.6-0.3-0.8-0.5c-0.2-0.2-0.4-0.4-0.5-0.7c-0.1-0.4-0.1-0.6-0.1-1c0-0.4,0.1-0.7,0.2-1c0.1-0.4,0.3-0.6,0.5-0.8
	c0.2-0.3,0.5-0.4,0.9-0.6c0.3-0.1,0.6-0.1,1-0.1c0.5,0,0.9,0.1,1.3,0.2v0.9c-0.4-0.2-0.8-0.4-1.2-0.4c-0.3,0-0.5,0.1-0.7,0.1
	c-0.2,0.1-0.4,0.2-0.5,0.4c-0.2,0.1-0.3,0.3-0.4,0.5c-0.1,0.2-0.1,0.5-0.1,0.7c0,0.3,0.1,0.5,0.1,0.7c0.1,0.2,0.1,0.4,0.3,0.6
	c0.1,0.1,0.4,0.2,0.5,0.3c0.2,0.1,0.4,0.1,0.6,0.1c0.4,0,0.9-0.1,1.2-0.3L97.2,90.6L97.2,90.6z M94.7,98.9h-0.9V96
	c0-0.1,0-0.2,0-0.3s0.1-0.2,0.1-0.2h-0.1c0,0,0,0.1-0.1,0.1c-0.1,0.1-0.1,0.2-0.2,0.4l-0.9,1.5H92l-1.1-1.6c0,0-0.1-0.1-0.1-0.1
	c-0.1-0.1-0.1-0.2-0.2-0.3l0,0c0,0.1,0,0.1,0,0.2s0,0.1,0,0.3v2.9h-0.9V94h0.8l1.4,1.9c0.1,0.1,0.1,0.1,0.2,0.2
	c0,0.1,0.1,0.2,0.1,0.3l0,0c0-0.1,0.1-0.2,0.1-0.3c0-0.1,0.1-0.1,0.1-0.3l1.2-1.9h0.9V98.9L94.7,98.9z M98.4,98.9h-2.7V94h2.7
	l-0.2,0.7h-1.6V96h1.6v0.8h-1.6v1.4h1.8V98.9z M88.8,86v1.2c0,0.1-0.1,0.4-0.1,0.6L88.2,89h0.6v0.7h-0.9l-0.4,1.2h-0.9l1.9-4.9H88.8
	L88.8,86z M80.6,98.9v-0.7l0,0c0.3,0,0.5-0.1,0.6-0.1c0.2-0.1,0.4-0.2,0.5-0.4c0.1-0.1,0.2-0.4,0.3-0.6c0.1-0.2,0.1-0.4,0.1-0.7
	c0-0.2-0.1-0.4-0.1-0.6c-0.1-0.2-0.1-0.4-0.3-0.6c-0.1-0.1-0.3-0.3-0.5-0.4c-0.1-0.1-0.4-0.1-0.6-0.1l0,0V94h0.1
	c0.4,0,0.6,0.1,1,0.1c0.3,0.1,0.5,0.3,0.7,0.5c0.2,0.2,0.4,0.5,0.5,0.8c0.1,0.3,0.2,0.6,0.2,1c0,0.4-0.1,0.7-0.2,1
	c-0.1,0.3-0.3,0.6-0.5,0.8c-0.2,0.2-0.4,0.4-0.8,0.5C81.4,98.9,81.1,98.9,80.6,98.9L80.6,98.9L80.6,98.9z M80.6,90.4v-3.7
	c0.1,0,0.1,0.1,0.1,0.1c0.2,0.2,0.4,0.5,0.4,0.8c0.1,0.3,0.2,0.6,0.2,1c0,0.4-0.1,0.7-0.2,1C81.1,89.8,80.9,90.1,80.6,90.4
	C80.7,90.3,80.7,90.4,80.6,90.4L80.6,90.4z M86.5,86l-2.1,4.9h-0.6l-2-4.9h1l1,2.7c0.1,0.2,0.1,0.4,0.1,0.5c0.1,0.1,0.1,0.3,0.1,0.4
	h0.1c0-0.1,0.1-0.3,0.1-0.4c0-0.1,0.1-0.3,0.1-0.4l1.2-2.8H86.5L86.5,86z M88.8,98.9h-0.9V96c0-0.1,0-0.2,0-0.3s0-0.2,0-0.2l0,0
	c0,0-0.1,0.1-0.1,0.1c-0.1,0.1-0.1,0.2-0.2,0.4l-1,1.5h-0.4l-1.1-1.6c-0.1,0-0.1-0.1-0.1-0.1c-0.1-0.1-0.1-0.2-0.1-0.3l0,0
	c0,0.1,0,0.1,0,0.2s0,0.1,0,0.3v2.9h-0.9V94h0.9l1.4,1.9c0,0.1,0.1,0.1,0.1,0.2c0.1,0.1,0.1,0.2,0.1,0.3l0,0
	c0.1-0.1,0.1-0.2,0.1-0.3c0.1-0.1,0.1-0.1,0.1-0.3L88,94h0.8V98.9z M80.6,86.6v3.7c-0.1,0.1-0.4,0.4-0.6,0.4c-0.4,0.1-0.6,0.2-1,0.2
	h-0.1v-0.7H79c0.2,0,0.4-0.1,0.6-0.1c0.2-0.1,0.4-0.2,0.5-0.4c0.1-0.1,0.2-0.4,0.3-0.6c0.1-0.2,0.1-0.4,0.1-0.7
	c0-0.2-0.1-0.5-0.1-0.7c-0.1-0.2-0.1-0.4-0.3-0.5c-0.1-0.1-0.3-0.3-0.5-0.4c-0.1-0.1-0.4-0.1-0.6-0.1h-0.1V86H79
	c0.4,0,0.6,0.1,1,0.1C80.2,86.3,80.5,86.5,80.6,86.6L80.6,86.6z M80.6,94v0.7c-0.2,0-0.4,0.1-0.6,0.1c-0.2,0.1-0.4,0.2-0.5,0.4
	c-0.1,0.1-0.2,0.4-0.3,0.6c-0.1,0.1-0.1,0.4-0.1,0.6c0,0.3,0.1,0.5,0.1,0.7c0.1,0.2,0.1,0.4,0.3,0.6c0.1,0.1,0.3,0.3,0.5,0.4
	c0.1,0.1,0.4,0.1,0.6,0.1v0.7c-0.4,0-0.6-0.1-0.9-0.2c-0.3-0.1-0.6-0.2-0.8-0.4v-3.7c0.2-0.2,0.5-0.4,0.8-0.4C80,94,80.3,94,80.6,94
	z M78.9,86v0.7c-0.2,0-0.4,0.1-0.6,0.1c-0.2,0.1-0.4,0.2-0.5,0.4c-0.1,0.1-0.2,0.3-0.3,0.5c-0.1,0.2-0.1,0.5-0.1,0.7
	c0,0.3,0.1,0.5,0.1,0.7c0.1,0.2,0.1,0.4,0.3,0.6c0.1,0.1,0.3,0.3,0.5,0.4c0.1,0.1,0.4,0.1,0.6,0.1V91c-0.4,0-0.6-0.1-0.9-0.2
	c-0.4-0.1-0.6-0.3-0.8-0.5c-0.2-0.2-0.4-0.4-0.5-0.7c-0.1-0.4-0.2-0.6-0.2-1c0-0.4,0.1-0.7,0.2-1c0.1-0.4,0.3-0.6,0.5-0.8
	c0.2-0.3,0.4-0.4,0.8-0.6C78.3,86.1,78.6,86,78.9,86L78.9,86z M78.9,94.6v3.7l0,0c-0.2-0.2-0.4-0.5-0.5-0.8c-0.1-0.3-0.2-0.6-0.2-1
	c0-0.4,0.1-0.7,0.2-1C78.5,95.2,78.7,94.9,78.9,94.6L78.9,94.6L78.9,94.6z M69.8,96.8V96h1.4v0.7H69.8L69.8,96.8z M69.8,94.8V94h1.7
	l-0.3,0.7H69.8L69.8,94.8z M69.8,91v-0.7l0,0c0.2,0,0.4-0.1,0.6-0.1c0.2-0.1,0.4-0.2,0.5-0.4c0.1-0.1,0.2-0.4,0.3-0.6
	c0.1-0.2,0.1-0.4,0.1-0.7c0-0.2,0-0.5-0.1-0.7c-0.1-0.2-0.1-0.4-0.3-0.5c-0.1-0.1-0.3-0.3-0.5-0.4c-0.2-0.1-0.4-0.1-0.6-0.1l0,0V86
	l0,0c0.4,0,0.7,0.1,1,0.1c0.4,0.1,0.6,0.3,0.8,0.5c0.2,0.2,0.4,0.5,0.5,0.8c0.1,0.3,0.2,0.6,0.2,1c0,0.4-0.1,0.7-0.2,1
	c-0.1,0.3-0.3,0.6-0.5,0.8c-0.2,0.2-0.5,0.4-0.8,0.5C70.5,90.9,70.1,91,69.8,91L69.8,91L69.8,91z M76,89.6c0,0.2,0,0.4-0.1,0.6
	c-0.1,0.2-0.1,0.4-0.3,0.4c-0.2,0.1-0.4,0.2-0.6,0.3c-0.2,0.1-0.4,0.1-0.6,0.1c-0.6,0-1.1-0.1-1.5-0.4l0.4-0.7
	c0.4,0.3,0.7,0.4,1.1,0.4c0.2,0,0.4-0.1,0.6-0.1C75,90,75,89.9,75,89.7c0-0.3-0.1-0.5-0.5-0.7l-1-0.6c-0.4-0.3-0.6-0.6-0.6-1.1
	c0-0.2,0.1-0.4,0.1-0.5c0.1-0.2,0.1-0.4,0.3-0.4c0.1-0.1,0.4-0.2,0.5-0.3c0.2-0.1,0.4-0.1,0.6-0.1c0.5,0,0.9,0.1,1.2,0.2v0.9
	c-0.4-0.3-0.8-0.4-1.2-0.4c-0.2,0-0.4,0-0.5,0.1c-0.1,0.1-0.2,0.1-0.2,0.4c0,0.2,0.2,0.4,0.6,0.6l1,0.6C75.8,88.8,76,89.1,76,89.6
	L76,89.6z M77.8,98.5c-0.5,0.3-1,0.4-1.6,0.4c-0.4,0-0.7-0.1-1-0.2c-0.3-0.1-0.6-0.2-0.8-0.4c-0.2-0.2-0.4-0.5-0.5-0.8
	c-0.1-0.3-0.1-0.6-0.1-1c0-0.4,0.1-0.7,0.2-1c0.1-0.3,0.3-0.6,0.5-0.8c0.2-0.2,0.5-0.4,0.9-0.5c0.3-0.1,0.6-0.2,1-0.2
	c0.6,0,0.9,0.1,1.3,0.3V95c-0.4-0.2-0.8-0.4-1.2-0.4c-0.3,0-0.5,0.1-0.7,0.1c-0.2,0.1-0.4,0.2-0.5,0.4c-0.1,0.1-0.3,0.4-0.4,0.6
	c-0.1,0.2-0.1,0.4-0.1,0.6c0,0.3,0.1,0.5,0.1,0.7c0.1,0.2,0.2,0.4,0.4,0.6c0.1,0.1,0.3,0.3,0.4,0.4c0.2,0.1,0.4,0.1,0.6,0.1
	c0.4,0,0.9-0.1,1.2-0.4L77.8,98.5z M67,90.9h-1.2l-0.4-0.5v-1.3L67,90.9L67,90.9z M65.5,86.5l0.3-0.4h1.1l-1.4,1.6V86.5L65.5,86.5z
	 M69.8,86v0.7c-0.2,0-0.4,0.1-0.6,0.1c-0.1,0.1-0.4,0.2-0.4,0.4c-0.1,0.1-0.3,0.3-0.4,0.5c-0.1,0.2-0.1,0.5-0.1,0.7
	c0,0.3,0,0.5,0.1,0.7c0.1,0.2,0.2,0.4,0.4,0.6c0.1,0.1,0.3,0.3,0.4,0.4c0.2,0.1,0.4,0.1,0.6,0.1V91c-0.4,0-0.7-0.1-1-0.2
	c-0.3-0.1-0.6-0.3-0.8-0.5c-0.2-0.2-0.4-0.4-0.5-0.7c-0.1-0.4-0.1-0.6-0.1-1c0-0.4,0.1-0.7,0.1-1c0.1-0.4,0.3-0.6,0.6-0.8
	c0.2-0.3,0.4-0.4,0.7-0.6C69.1,86.1,69.4,86,69.8,86L69.8,86z M69.8,94v0.7h-0.1V96h0.1v0.7h-0.1v2.1h-0.9V94H69.8L69.8,94z
	 M65.5,98.9v-0.7l0,0c0.2,0,0.4-0.1,0.6-0.1c0.2-0.1,0.4-0.2,0.5-0.4c0.1-0.1,0.2-0.4,0.3-0.6c0.1-0.2,0.1-0.4,0.1-0.7
	c0-0.2,0-0.4-0.1-0.6c-0.1-0.2-0.1-0.4-0.3-0.6c-0.1-0.1-0.3-0.3-0.5-0.4c-0.2-0.1-0.4-0.1-0.6-0.1l0,0V94l0,0c0.4,0,0.7,0.1,1,0.1
	c0.4,0.1,0.6,0.3,0.8,0.5c0.2,0.2,0.4,0.5,0.5,0.8c0.1,0.3,0.2,0.6,0.2,1c0,0.4-0.1,0.7-0.2,1c-0.1,0.3-0.3,0.6-0.5,0.8
	c-0.2,0.2-0.5,0.4-0.8,0.5C66.2,98.9,65.9,98.9,65.5,98.9L65.5,98.9z M65.5,90.4l-1.3-1.7h-0.1v2.2h-0.9V86h0.9v2.1l0,0l1.4-1.7v1.2
	l-0.6,0.7l0.6,0.7V90.4L65.5,90.4z M65.5,94v0.7c-0.2,0-0.4,0.1-0.6,0.1c-0.1,0.1-0.4,0.2-0.4,0.4c-0.1,0.1-0.3,0.4-0.4,0.6
	C64,95.9,64,96.2,64,96.4c0,0.3,0,0.5,0.1,0.7c0.1,0.2,0.2,0.4,0.4,0.6c0.1,0.1,0.3,0.3,0.4,0.4c0.2,0.1,0.4,0.1,0.6,0.1v0.7
	c-0.4,0-0.7-0.1-1-0.2c-0.3-0.1-0.6-0.2-0.8-0.4c-0.2-0.2-0.4-0.5-0.5-0.8c-0.1-0.3-0.1-0.6-0.1-1c0-0.4,0.1-0.7,0.1-1
	c0.1-0.3,0.3-0.6,0.5-0.8c0.3-0.2,0.5-0.4,0.8-0.5C64.9,94,65.2,94,65.5,94z"/>
<line class="st1" x1="59.8" y1="84.5" x2="59.8" y2="102.7"/>
<g>
	<path class="st2" d="M59.8,3.9L59.8,3.9L59.8,3.9L59.8,3.9L59.8,3.9c-9.6,0-18.4,3.9-24.6,10.2c-6.3,6.3-10.2,15-10.2,24.6l0,0l0,0
		l0,0l0,0c0,9.6,3.9,18.3,10.2,24.6c6.3,6.3,15,10.2,24.6,10.2l0,0l0,0l0,0l0,0c9.5,0,18.2-3.9,24.6-10.2c6.3-6.3,10.2-15,10.2-24.6
		l0,0l0,0l0,0l0,0c0-9.6-3.9-18.3-10.2-24.6C78,7.8,69.3,3.9,59.8,3.9z"/>
	<path class="st3" d="M59.8,0L59.8,0L59.8,0C70.3,0,80.1,4.3,87,11.3c7.1,7.1,11.4,16.7,11.4,27.4l0,0l0,0l0,0l0,0
		c0,10.7-4.3,20.3-11.4,27.4c-7,7-16.7,11.3-27.3,11.3l0,0l0,0v-3.9l0,0l0,0c9.5,0,18.2-3.9,24.6-10.2c6.3-6.3,10.2-15,10.2-24.6
		l0,0l0,0l0,0l0,0c0-9.6-3.9-18.3-10.2-24.6C78,7.8,69.3,3.9,59.8,3.9l0,0l0,0V0z M59.8,0L59.8,0v3.9l0,0l0,0l0,0
		c-9.6,0-18.4,3.9-24.6,10.2c-6.3,6.3-10.2,15-10.2,24.6l0,0l0,0l0,0l0,0c0,9.6,3.9,18.3,10.2,24.6c6.3,6.3,15,10.2,24.6,10.2l0,0
		l0,0l0,0v3.9l0,0l0,0l0,0c-10.7,0-20.4-4.3-27.4-11.3C25.3,59,21,49.5,21,38.7l0,0l0,0l0,0l0,0c0-10.7,4.3-20.4,11.4-27.4
		C39.3,4.3,49,0,59.8,0L59.8,0L59.8,0z"/>
	<path class="st4" d="M80.1,17.9c5.4,5.3,8.8,12.7,8.8,20.8c0,1.5-0.1,3-0.4,4.4h-8.4V29.5l2,1.4l-0.7-2.3l2-1.5h-2.4l-0.9-2.4V17.9
		z M72.8,12.7c2.7,1.4,5.2,3.2,7.3,5.3v6.7l-0.7,2.3l-2.6,0.1l2,1.4L78,30.9l1.9-1.4h0.1v13.6h-7.3V23l2.1,1.4L74.1,22l2-1.6h-2.4
		l-0.9-2.4V12.7z M64.7,10c2.9,0.5,5.6,1.4,8.1,2.7v5.4l-0.7,2.3l-2.5,0.1l1.9,1.4l-0.7,2.4l1.9-1.4l0.1,0.1v20.2H70
		c0.1-0.4,0.1-0.7,0.2-1c0-0.1,0-0.1,0-0.2c0.1-0.4,0.1-0.9,0.1-1.3l0,0l0,0l0,0l0,0c0-3-1.2-5.6-3.1-7.6c-0.7-0.7-1.5-1.3-2.4-1.8
		V19l2.1,1.4L66,18.1l2-1.6h-2.4l-0.9-2.4l0,0V10z M59.8,9.6c1.7,0,3.3,0.1,5,0.4v4.1L64,16.4l-2.5,0.1l1.9,1.4l-0.7,2.4l1.9-1.4
		l0.1,0.1v12.2c-1.5-0.9-3.2-1.3-5-1.3l0,0l0,0l0,0c-1.9,0-3.6,0.4-5.1,1.3V19l0.1-0.1l1.9,1.4l-0.7-2.4l1.9-1.4l-2.5-0.1l-0.7-2.3
		V10C56.3,9.7,58,9.6,59.8,9.6z M54.6,31.2c-1.3,0.7-2.4,1.7-3.4,2.8c-0.4,0.5-0.6,1.1-0.9,1.6c-0.4,0.6-0.6,1.2-0.8,1.7l0,0l0,0
		v0.1h-3V23l0.1-0.1l1.9,1.4l-0.7-2.4l1.9-1.4l-2.5-0.1l-0.7-2.3v-5.4c2.4-1.2,5.2-2.2,8.1-2.7v4.1l-0.9,2.4h-2.4l2,1.6l-0.8,2.3
		l2.1-1.4V31.2z M46.6,37.4h-7.3v-7.9h0.1l1.9,1.4l-0.6-2.4l1.9-1.4L40,26.9l-0.7-2.3v-6.7c2.2-2.1,4.5-3.9,7.3-5.3v5.4l-0.9,2.4
		h-2.4l2,1.6l-0.8,2.3l2.1-1.4V37.4z M39.3,37.4h-8.7c0.3-7.6,3.6-14.5,8.7-19.5v6.7l-0.9,2.4H36l2,1.5l-0.7,2.3l2-1.4V37.4z"/>
	<g>
		<path class="st5" d="M88.5,43.8c-0.6,3.7-1.9,7.3-3.7,10.4v-5.5h0.4v-2.8h-0.4v-2.2H88.5z M84.7,54.2c-0.8,1.3-1.7,2.5-2.7,3.6
			v-5.6h0.4v-6.3h-0.4v-2.2h2.7v2.2h-0.4v2.8h0.4V54.2z M82.1,57.8c-0.9,1.1-1.8,2-2.7,3v-5.3h0.4v-9.6h-0.4v-2.2h2.7v2.2h-0.4v6.3
			h0.4V57.8z M79.3,60.8c-0.9,0.8-1.8,1.5-2.8,2.2v-4.6H77V45.9h-0.4v-2.2h2.8v2.2h-0.4v9.6h0.4V60.8z M76.5,63
			c-0.9,0.6-1.8,1.2-2.7,1.7v-3.8h0.4v-15h-0.4v-2.2h2.7v2.2h-0.4v12.5h0.4V63z M73.8,64.7c-0.9,0.5-1.8,0.9-2.7,1.3v-3.4h0.4V45.9
			h-0.4v-2.2h2.7v2.2h-0.4v15h0.4V64.7z M71.1,66c-0.9,0.4-1.8,0.7-2.7,1v-2.9h0.4V45.9h-0.4v-2.2h2.7v2.2h-0.4v16.7h0.4V66z
			 M68.3,67c-0.9,0.3-1.8,0.5-2.7,0.7v-2.6H66V45.9h-0.4v-2.2h2.7v2.2h-0.4v18.2h0.4V67z M65.6,67.8c-0.9,0.1-1.9,0.3-2.8,0.4v-2.4
			h0.4V45.9h-0.4v-2.2h2.8v2.2h-0.4v19.2h0.4V67.8z M62.8,68.1c-0.9,0.1-1.9,0.1-2.9,0.1V43.8h2.9v2.2h-0.4v19.8h0.4V68.1z"/>
	</g>
	<g>
		<path class="st6" d="M59.3,68.3c-1.2,0-2.2-0.1-3.3-0.2v-2.3h1.2v-0.8H56v-1.7h1.2v-0.8H56v-1.9h1.2v-0.8H56v-1.9h1.2V57H56v-1.9
			h1.2v-0.8H56v-1.9h1.2v-0.9H56v-1.9h1.2v-0.8H56v-1.9h1.2V46H56v-2.2h3.3V68.3z M56,68c-1.3-0.2-2.5-0.4-3.7-0.8v-4H56v1.7h-1.3
			v0.8H56V68L56,68z M52.3,43.8H56V46h-3.7V43.8L52.3,43.8z M56,46.8v1.9h-3.7v-1.9H56L56,46.8z M56,49.5v1.9h-3.7v-1.9H56L56,49.5z
			 M56,52.3v1.9h-3.7v-1.9H56L56,52.3z M56,55.1V57h-3.7v-1.9H56L56,55.1z M56,57.7v1.9h-3.7v-1.9H56L56,57.7z M56,60.5v1.9h-3.7
			v-1.9H56z M52.3,67.2c-2.2-0.6-4.2-1.4-6.2-2.4v-4.4h6.2v1.9h-5v0.8h5V67.2L52.3,67.2z M46.2,43.8h6.2V46h-6.2V43.8L46.2,43.8z
			 M52.3,46.8v1.9h-6.2v-1.9H52.3L52.3,46.8z M52.3,49.5v1.9h-6.2v-1.9H52.3L52.3,49.5z M52.3,52.3v1.9h-6.2v-1.9H52.3L52.3,52.3z
			 M52.3,55.1V57h-6.2v-1.9H52.3L52.3,55.1z M52.3,57.7v1.9h-6.2v-1.9H52.3z M46.2,64.9c-7.9-4.2-13.6-12-15-21.1h15V46H35.1v0.8
			h11.1v1.9H35.7v0.8h10.4v1.9h-9.4v0.9h9.4v1.9h-7.6v0.8h7.6V57h-5.9v0.7h5.9v1.9h-2.2v0.8h2.2V64.9z"/>
	</g>
	<path class="st7" d="M60,30c2.8,0.1,5.3,1.2,7.2,3.1c1.9,1.9,3.1,4.6,3.1,7.6l0,0l0,0l0,0l0,0c0,0.4,0,0.9-0.1,1.3
		c0,0.1,0,0.1,0,0.2c-0.1,0.4-0.1,0.7-0.2,1l-0.1,0.2h-0.1h-8.4h-0.7l0.6-0.4l0,0l0,0c0.1-0.1,0.2-0.1,0.3-0.2
		c0.1-0.1,0.2-0.2,0.3-0.3c0.4-0.5,0.6-1.2,0.6-1.9l0,0l0,0c0-0.2,0-0.4,0-0.6c-0.1-0.2-0.1-0.4-0.2-0.6c-0.4-0.9-1.1-1.5-2-1.7
		h-0.1H60v-0.4l0,0l0,0h0.3c1.1,0.2,2,1,2.4,2c0.1,0.2,0.1,0.4,0.1,0.6c0.1,0.2,0.1,0.4,0.1,0.6l0,0l0,0c0,0.8-0.3,1.6-0.7,2.2
		c-0.1,0.1-0.1,0.1-0.2,0.2h7.6c0.1-0.3,0.1-0.6,0.1-0.9c0-0.1,0-0.1,0-0.2c0.1-0.4,0.1-0.8,0.1-1.2l0,0l0,0l0,0l0,0
		c0-2.9-1.1-5.4-3-7.3c-1.8-1.8-4.2-2.9-6.9-3V30z M59.8,30L59.8,30L59.8,30c0.1,0,0.1,0,0.2,0v0.4c-0.1,0-0.1,0-0.2,0l0,0l0,0l0,0
		c-3.3,0-6.3,1.5-8.1,4c-0.4,0.5-0.6,1-0.9,1.5c-0.2,0.4-0.4,0.9-0.6,1.4H60v0.4H49.8h-0.3l0.1-0.3l0,0l0,0c0.2-0.6,0.4-1.2,0.8-1.7
		c0.3-0.5,0.6-1.1,0.9-1.6C53.2,31.5,56.3,30,59.8,30L59.8,30z"/>
	<path class="st8" d="M60,32.5c2.1,0.1,4,0.9,5.3,2.3c1.4,1.5,2.4,3.5,2.4,5.8l0,0l0,0l0,0l0,0c0,0.4-0.1,0.9-0.1,1.3
		c0,0.1,0,0.1,0,0.2c-0.1,0.3-0.1,0.5-0.2,0.8h2.2c0.1-0.3,0.1-0.6,0.1-0.9c0-0.1,0-0.1,0-0.2c0.1-0.4,0.1-0.8,0.1-1.2l0,0l0,0l0,0
		l0,0c0-2.9-1.1-5.4-3-7.3c-1.8-1.7-4.2-2.9-6.8-3V32.5L60,32.5z M60,37.2v-1.6c1.2,0.1,2.3,0.6,3.2,1.4c0.9,0.9,1.4,2.1,1.4,3.5
		l0,0l0,0l0,0l0,0c0,0.4-0.1,0.9-0.1,1.2c-0.1,0.1-0.1,0.1-0.1,0.2c-0.1,0.3-0.2,0.6-0.4,0.9H62c0.1-0.1,0.1-0.1,0.2-0.2
		c0.4-0.6,0.7-1.4,0.7-2.2l0,0l0,0c0-0.2,0-0.4-0.1-0.6c0-0.2-0.1-0.4-0.1-0.6c-0.4-1-1.4-1.8-2.4-2H60L60,37.2z M60,35.2V33
		c1.9,0.1,3.7,0.9,5,2.2c1.4,1.4,2.2,3.2,2.2,5.4l0,0l0,0l0,0l0,0c0,0.4-0.1,0.8-0.1,1.2c0,0.1,0,0.1,0,0.2
		c-0.1,0.3-0.1,0.6-0.2,0.9h-2.4c0.1-0.3,0.1-0.5,0.2-0.7c0.1-0.1,0.1-0.1,0.1-0.2c0.1-0.4,0.2-0.9,0.2-1.4l0,0l0,0l0,0l0,0
		c0-1.5-0.6-2.9-1.6-3.9C62.6,35.9,61.3,35.3,60,35.2z M59.8,30.4L59.8,30.4L59.8,30.4L59.8,30.4c-3.3,0-6.3,1.5-8.1,4
		c-0.4,0.5-0.6,1-0.9,1.5c-0.2,0.4-0.4,0.9-0.6,1.4h2.3c0.2-0.4,0.4-0.6,0.6-1c0.2-0.4,0.5-0.7,0.8-1c1.5-1.7,3.6-2.7,6-2.7l0,0l0,0
		c0.1,0,0.2,0.1,0.3,0.1v-2.2C60,30.4,59.8,30.4,59.8,30.4L59.8,30.4z M60,33v2.2c-0.1-0.1-0.2-0.1-0.3-0.1l0,0l0,0
		c-1.3,0-2.4,0.5-3.4,1.2c-0.2,0.1-0.4,0.3-0.5,0.4c-0.1,0.1-0.3,0.3-0.4,0.4h-2.6c0.1-0.2,0.3-0.5,0.4-0.8c0.2-0.3,0.5-0.6,0.7-0.9
		c1.4-1.6,3.5-2.6,5.8-2.6l0,0l0,0C59.8,32.9,60,32.9,60,33L60,33z M60,35.6v1.6H60l0,0h-4c0.1,0,0.1-0.1,0.1-0.1
		c0.1-0.1,0.3-0.3,0.4-0.4c0.9-0.6,1.9-1.1,3.2-1.1l0,0l0,0C59.8,35.6,60,35.6,60,35.6z"/>
</g>
</svg>
